<svg width="32" height="32" viewBox="0 0 32 32" fill="none" xmlns="http://www.w3.org/2000/svg">
<circle cx="16" cy="16" r="15.5" fill="black" stroke="white"/>
<path d="M25.4141 13.0276H24.0289C23.2944 12.3316 22.3031 11.9041 21.2137 11.9041C19.9319 11.9041 18.7858 12.4962 18.0342 13.4211C16.8484 12.4818 15.1536 12.4802 13.9657 13.4211C13.2141 12.4962 12.0681 11.9041 10.7862 11.9041C9.69684 11.9041 8.70555 12.3316 7.97105 13.0276H6.58594C6.26234 13.0276 6 13.29 6 13.6135C6 13.9371 6.26234 14.1995 6.58594 14.1995H7.10797C6.84078 14.7432 6.69039 15.3542 6.69039 15.9999C6.69039 18.2583 8.52777 20.0957 10.7862 20.0957C13.0446 20.0957 14.882 18.2583 14.882 15.9999C14.882 15.4487 14.7723 14.9226 14.574 14.4422C15.3776 13.7037 16.6213 13.7027 17.426 14.4422C17.2277 14.9226 17.118 15.4487 17.118 15.9999C17.118 18.2583 18.9554 20.0957 21.2138 20.0957C23.4723 20.0957 25.3096 18.2583 25.3096 15.9999C25.3096 15.3542 25.1593 14.7432 24.8921 14.1995H25.4141C25.7377 14.1995 26 13.9371 26 13.6135C26 13.29 25.7377 13.0276 25.4141 13.0276ZM10.7862 18.9238C9.17395 18.9238 7.86227 17.6121 7.86227 15.9999C7.86227 14.3876 9.17395 13.0759 10.7862 13.0759C12.3985 13.0759 13.7102 14.3876 13.7102 15.9999C13.7102 17.6121 12.3985 18.9238 10.7862 18.9238ZM21.2138 18.9238C19.6015 18.9238 18.2898 17.6121 18.2898 15.9999C18.2898 14.3876 19.6015 13.0759 21.2138 13.0759C22.8261 13.0759 24.1377 14.3876 24.1377 15.9999C24.1377 17.6121 22.8261 18.9238 21.2138 18.9238Z" fill="white"/>
</svg>
