<svg width="32" height="32" viewBox="0 0 32 32" fill="none" xmlns="http://www.w3.org/2000/svg">
<path d="M16 4C12.741 4 12.332 4.014 11.052 4.072C9.775 4.13 8.902 4.333 8.14 4.63C7.3391 4.93121 6.61356 5.40352 6.014 6.014C5.4035 6.61354 4.93118 7.33909 4.63 8.14C4.333 8.903 4.13 9.775 4.072 11.052C4.014 12.332 4 12.741 4 16C4 19.259 4.014 19.668 4.072 20.948C4.131 22.225 4.333 23.098 4.63 23.86C4.937 24.65 5.347 25.319 6.014 25.986C6.61358 26.5965 7.33912 27.0688 8.14 27.37C8.903 27.667 9.775 27.87 11.052 27.928C12.332 27.986 12.741 28 16 28C19.259 28 19.668 27.986 20.948 27.928C22.225 27.87 23.098 27.667 23.86 27.37C24.6609 27.0688 25.3864 26.5965 25.986 25.986C26.5965 25.3864 27.0688 24.6609 27.37 23.86C27.667 23.097 27.87 22.225 27.928 20.948C27.986 19.668 28 19.259 28 16C28 12.741 27.986 12.332 27.928 11.052C27.87 9.775 27.667 8.902 27.37 8.14C27.0688 7.3391 26.5965 6.61356 25.986 6.014C25.3864 5.40355 24.6609 4.93123 23.86 4.63C23.097 4.333 22.225 4.13 20.948 4.072C19.668 4.014 19.259 4 16 4ZM16 6.162C19.204 6.162 19.584 6.174 20.849 6.232C22.019 6.286 22.654 6.481 23.077 6.645C23.637 6.863 24.037 7.123 24.457 7.543C24.877 7.963 25.137 8.363 25.355 8.923C25.519 9.346 25.715 9.981 25.768 11.151C25.826 12.416 25.838 12.796 25.838 16C25.838 19.204 25.826 19.584 25.768 20.849C25.715 22.019 25.519 22.654 25.355 23.077C25.137 23.637 24.877 24.037 24.457 24.457C24.037 24.877 23.637 25.137 23.077 25.355C22.654 25.519 22.019 25.715 20.849 25.768C19.584 25.826 19.204 25.838 16 25.838C12.796 25.838 12.416 25.826 11.151 25.768C9.981 25.715 9.346 25.519 8.923 25.355C8.40166 25.1626 7.93009 24.8557 7.543 24.457C7.123 24.037 6.863 23.637 6.645 23.077C6.481 22.654 6.285 22.019 6.232 20.849C6.174 19.584 6.162 19.204 6.162 16C6.162 12.796 6.174 12.416 6.232 11.151C6.286 9.981 6.481 9.346 6.645 8.923C6.863 8.363 7.123 7.963 7.543 7.543C7.963 7.123 8.363 6.863 8.923 6.645C9.346 6.481 9.981 6.285 11.151 6.232C12.416 6.174 12.796 6.162 16 6.162Z" fill="#555555"/>
<path d="M16 20C14.9391 20 13.9217 19.5786 13.1716 18.8284C12.4214 18.0783 12 17.0609 12 16C12 14.9391 12.4214 13.9217 13.1716 13.1716C13.9217 12.4214 14.9391 12 16 12C17.0609 12 18.0783 12.4214 18.8284 13.1716C19.5786 13.9217 20 14.9391 20 16C20 17.0609 19.5786 18.0783 18.8284 18.8284C18.0783 19.5786 17.0609 20 16 20ZM16 9.83799C15.1908 9.83799 14.3895 9.99738 13.6419 10.307C12.8943 10.6167 12.215 11.0706 11.6428 11.6428C11.0706 12.215 10.6167 12.8943 10.3071 13.6419C9.9974 14.3895 9.83801 15.1908 9.83801 16C9.83801 16.8092 9.9974 17.6105 10.3071 18.3581C10.6167 19.1057 11.0706 19.785 11.6428 20.3572C12.215 20.9294 12.8943 21.3833 13.6419 21.6929C14.3895 22.0026 15.1908 22.162 16 22.162C17.6343 22.162 19.2016 21.5128 20.3572 20.3572C21.5128 19.2016 22.162 17.6343 22.162 16C22.162 14.3657 21.5128 12.7984 20.3572 11.6428C19.2016 10.4872 17.6343 9.83799 16 9.83799ZM23.846 9.59399C23.846 9.9759 23.6943 10.3422 23.4242 10.6122C23.1542 10.8823 22.7879 11.034 22.406 11.034C22.0241 11.034 21.6578 10.8823 21.3878 10.6122C21.1177 10.3422 20.966 9.9759 20.966 9.59399C20.966 9.21208 21.1177 8.84581 21.3878 8.57576C21.6578 8.30571 22.0241 8.15399 22.406 8.15399C22.7879 8.15399 23.1542 8.30571 23.4242 8.57576C23.6943 8.84581 23.846 9.21208 23.846 9.59399Z" fill="#555555"/>
</svg>
