<svg width="140" height="64" viewBox="0 0 140 64" fill="none" xmlns="http://www.w3.org/2000/svg">
<path d="M100.367 2.68287C102.073 1.39967 104.149 0.855281 106.175 0.345457C107.672 -0.0390715 109.072 0.738626 110.417 1.29166C113.319 -0.0606743 116.927 -0.700115 119.773 1.13612C121.16 2.05207 124.437 2.06935 124.437 2.06935C124.437 2.06935 127.309 2.51005 128.368 3.53402C129.47 4.35924 129.5 5.83687 129.917 7.03798C130.776 7.31881 131.64 7.60829 132.491 7.93665C133.887 8.46808 135.203 9.04957 136.023 10.5765C136.643 11.733 136.448 12.78 136.593 13.899C137.924 15.6531 139.503 17.4073 139.912 19.6583C140.031 21.7105 140.252 24.0307 138.827 25.707C137.81 27.5346 135.376 27.2236 134.006 28.5543C133.142 30.2825 133.436 32.2872 133.027 34.1235C132.3 36.435 130.474 38.2107 128.398 39.3297C127.279 40.8549 127.002 42.7646 126.453 44.536C127.334 44.3329 128.189 43.8749 129.108 43.9311C130.789 44.9464 130.955 47.0332 131.01 48.8176C132.032 48.7183 132.827 49.1806 133.355 50.0533C133.257 53.7517 132.997 57.597 131.474 61.0059C131.078 61.857 130.164 61.4423 129.491 61.2824C129.504 61.5071 129.521 61.9564 129.53 62.1811C128.343 61.0404 127.27 59.6103 125.653 59.0876C124.854 58.9579 124.041 59.0228 123.241 58.9968C122.322 57.4674 121.616 55.804 120.509 54.4041C119.552 53.1641 118.105 52.4685 117.084 51.2976C115.85 49.9194 115.374 48.0054 114.097 46.6703C113.434 46.4111 112.744 46.2339 112.051 46.1043C110.77 46.4802 109.545 47.0419 108.4 47.7332C107.634 48.0356 106.673 48.2905 106.417 49.2022C105.822 51.1032 105.23 53.095 105.422 55.117C106.226 56.789 107.324 58.2926 108.328 59.848C109.408 60.0078 110.715 59.848 111.421 60.859C110.038 60.617 108.106 60.9756 107.387 59.4289C106.626 58.0722 105.715 56.8106 104.971 55.4497C104.639 53.5616 105.213 51.6519 105.571 49.807C105.868 47.6252 108.443 47.2493 110.013 46.2815C109.889 46.113 109.647 45.7803 109.528 45.6161C111.319 45.1538 113.123 45.4779 114.855 46.0179C115.544 45.642 116.169 45.1668 116.527 44.4366C114.672 44.4323 112.846 44.1169 111.038 43.741C110.715 43.5984 110.064 43.3176 109.74 43.175C111.34 42.7473 113 42.488 114.65 42.73C115.412 42.8855 116.084 42.4448 116.761 42.164C116.837 41.0579 116.803 39.9519 116.68 38.8545C116.259 40.0253 116.101 41.9782 114.361 41.5505C114.484 40.2716 114.706 38.9754 114.365 37.7138C113.914 37.662 113.459 37.6188 113.008 37.5756C112.761 37.3725 112.263 36.9621 112.017 36.759C112.025 35.9554 112.038 35.1474 112.059 34.3438C112.851 33.9938 114.263 33.821 114.238 35.0697C113.676 34.9876 113.119 34.8623 112.566 34.7456C112.549 35.0653 112.519 35.7091 112.502 36.0288C113.021 36.1109 113.544 36.193 114.068 36.2794C114.446 36.9966 114.829 37.7138 115.238 38.4224C116.82 38.0681 117.437 36.2535 117.603 34.7975C117.654 32.473 118.199 30.2004 118.314 27.876C118.318 26.7224 119.101 25.7978 119.671 24.8602C120.663 24.8905 121.654 24.9077 122.645 24.9337C123.394 23.5857 123.832 22.0951 124.177 20.5958C123.505 20.5008 122.743 20.5483 122.292 19.9305C122.292 18.1504 123.407 16.4784 123.024 14.694C121.824 12.4171 118.884 12.8534 116.867 13.5404C115.74 13.1083 115.025 12.106 114.259 11.2246C113.404 11.324 112.557 11.4449 111.719 11.6264C111.025 11.298 110.336 10.9654 109.672 10.5895C107.979 10.6413 106.745 11.9893 105.792 13.2596C104.92 14.1539 106.06 15.4025 105.502 16.4006C104.945 17.6795 103.835 18.6948 103.609 20.1163C103.435 21.5118 103.528 22.9721 102.916 24.2769C102.767 24.9293 101.984 24.8343 101.511 25.0633C101.762 25.3484 102.013 25.6336 102.265 25.9188C100.669 27.8673 100.439 30.5893 100.567 33.0217C100.358 33.1773 99.9456 33.4797 99.7371 33.6352C98.6777 32.6156 97.6182 31.5743 96.8438 30.3041C96.6864 29.8072 96.5205 29.319 96.346 28.8265C96.1801 27.5174 95.9673 26.2082 95.8695 24.8905C94.0952 24.0134 93.1293 22.0519 93.3549 20.0774C93.1634 17.1394 95.7844 14.8754 95.2781 11.9245C95.1802 10.7666 95.2015 9.48341 96.0184 8.56745C96.8736 7.80271 98.0139 7.54348 99.0606 7.16327C98.916 5.52579 98.9755 3.77597 100.367 2.68287ZM134.661 12.106C134.308 12.6201 134.431 12.9096 135.031 12.9701C135.38 12.4516 135.257 12.1621 134.661 12.106ZM96.9417 18.1504C95.9333 20.8292 96.2482 23.7628 96.4822 26.5539C96.78 28.995 97.7884 31.7688 100.201 32.7884C100.231 31.7688 100.256 30.7448 100.252 29.7251C98.8521 28.5543 98.3628 26.7656 97.614 25.1713C98.5117 24.5232 99.4904 23.9702 100.609 23.8535C100.614 23.5641 100.622 22.9808 100.626 22.687C99.5967 22.7129 98.6309 22.2809 98.2011 21.2871C98.1841 20.1163 97.8182 18.9454 96.9417 18.1504ZM99.4691 25.7632C99.6308 26.6964 99.9967 27.5735 100.38 28.4333C100.609 27.7334 100.984 27.0551 101.018 26.299C100.58 25.9188 100.078 25.4737 99.4691 25.7632ZM123.258 29.8072C122.607 30.2307 123.318 31.3454 123.935 30.801C124.551 30.3646 123.883 29.2542 123.258 29.8072Z" fill="white"/>
<path d="M115.706 19.4897C116.45 19.5891 117.199 19.6842 117.944 19.7922C118.067 20.0212 118.31 20.4748 118.433 20.7038C118.688 20.7384 119.19 20.8075 119.446 20.8464C118.663 21.8963 118.037 23.0801 118.212 24.4454C118.42 25.3225 117.595 25.6681 117.033 26.1045C115.952 25.2447 114.961 24.2164 113.638 23.7498C112.191 23.3264 110.642 23.106 109.451 22.0864C108.634 22.0518 107.813 22.0259 106.996 22.0259C106.375 22.3932 105.669 22.7302 105 22.2635C106.592 21.6025 108.26 21.1056 109.979 20.9544C111.242 20.6217 112.119 22.0086 113.353 21.9784C114.838 21.9741 116.361 22.0907 117.625 22.9807C117.922 22.3715 118.161 21.7451 118.399 21.1143C117.71 20.7557 117.025 20.3884 116.34 20.0255C116.097 20.181 115.612 20.5008 115.37 20.6563C115.455 20.3668 115.621 19.7792 115.706 19.4897Z" fill="white"/>
<path d="M105.885 24.4802C106.736 23.0414 108.519 23.3438 109.923 23.3568C112.123 23.5772 114.578 24.1431 115.948 26.0701C115.642 26.9817 115.386 27.9107 115.127 28.8396C114.689 28.1915 114.255 27.5391 113.787 26.9126C113.804 27.7551 113.948 28.5847 114.199 29.3883C112.161 30.6888 108.464 31.2116 107.2 28.6149C108.255 29.1031 109.217 29.8851 110.438 29.8506C109.906 28.5501 108.264 28.6106 107.549 27.4743C107.026 26.6231 106.141 26.2602 105.217 26.0528C105.277 25.7893 105.392 25.2665 105.451 25.0029C107.54 24.6789 109.659 24.3721 111.766 24.7783C109.919 23.7543 107.838 23.8537 105.885 24.4802ZM107.498 26.5799C108.302 28.1915 109.923 28.7445 111.685 28.8223C112.434 28.8554 112.88 28.36 113.476 28.1224C112.787 28.1829 111.876 28.5285 111.417 28.3082C110.957 28.0878 109.447 27.0552 109.285 25.7936C108.689 26.0528 108.094 26.3121 107.498 26.5799Z" fill="white"/>
<path d="M107.626 42.4663C108.153 42.4879 108.681 42.5138 109.208 42.5441C109.013 42.8379 108.813 43.136 108.617 43.4298C108.009 42.7299 107.247 43.3088 106.562 43.4903C106.911 43.1403 107.268 42.8033 107.626 42.4663Z" fill="white"/>
<path d="M104.622 46.7048C106.213 46.3332 107.787 45.8925 109.336 45.3611C108.468 46.9467 106.502 46.8344 104.962 46.9467C103.422 48.3509 102.545 50.792 103.422 52.7838C103.571 54.3781 103.596 55.981 103.584 57.5796C105.158 58.556 106.532 59.9602 107.136 61.7662C105.758 60.6472 104.988 58.8282 103.252 58.1758C103.213 57.9684 103.141 57.558 103.107 57.3549C102.681 57.1994 102.26 57.0395 101.843 56.8753C100.482 55.0909 101.443 52.8702 102.537 51.2197C102.792 49.5995 103.039 47.5516 104.622 46.7048ZM101.686 55.415C102.086 55.9551 102.511 56.4692 102.962 56.9704C103.03 55.402 102.996 53.825 102.69 52.2826C102.226 53.2547 101.358 54.2744 101.686 55.415Z" fill="white"/>
<path d="M109.749 50.7791C109.847 50.7791 110.042 50.7834 110.14 50.7834C110.54 51.8117 110.783 53.3455 112.195 53.2547C112.587 52.8356 112.987 52.4209 113.395 52.0147C112.744 53.7991 112.872 55.6872 113.442 57.4759C113.889 58.2233 114.297 58.9967 114.723 59.7615C115.369 60.1546 116.003 60.578 116.633 61.0058C115.723 61.9304 114.859 62.9025 114.153 63.9999C114.046 63.7148 113.825 63.1401 113.714 62.855C111.761 61.9693 109.306 63.1661 107.592 61.8526C108.243 61.8483 108.889 61.7705 109.528 61.6279C110.749 61.9736 112.021 62.0297 113.28 61.9261C112.91 61.5588 112.531 61.1916 112.153 60.8373C112.37 60.483 112.591 60.1374 112.812 59.7874C112.068 58.4955 110.719 57.7783 109.298 57.5623C109.336 56.4951 109.089 55.4452 108.136 54.8576C107.821 54.2744 107.553 53.6609 107.221 53.0905C107.864 53.3757 108.532 53.38 109.179 53.1165C109.353 52.3301 109.523 51.5481 109.749 50.7791Z" fill="white"/>
<path d="M50.191 19.5027L50.1532 19.7211C50.0627 19.7288 49.9834 19.7326 49.9154 19.7326C49.8173 19.7326 49.699 19.725 49.5606 19.7097C49.3241 19.6841 49.1744 19.6713 49.1115 19.6713C49.0058 19.6713 48.8435 19.6879 48.6245 19.7211C48.7025 19.5218 48.768 19.3123 48.8208 19.0926C48.8586 18.9367 48.8988 18.6684 48.9416 18.2877C48.6472 18.2851 48.1905 18.2915 47.5714 18.3068C46.9323 19.2983 46.463 19.9205 46.1635 20.1734C45.8666 20.4289 45.5835 20.5567 45.3142 20.5567C45.1733 20.5567 45.0689 20.5286 45.001 20.4724C44.9305 20.4187 44.8953 20.3485 44.8953 20.2616C44.8953 20.1951 44.9154 20.1402 44.9557 20.0968C44.9959 20.0533 45.0462 20.0316 45.1066 20.0316C45.1419 20.0316 45.1897 20.038 45.2501 20.0508C45.4011 20.0865 45.5017 20.1044 45.552 20.1044C45.7206 20.1044 45.9068 20.0073 46.1107 19.8131C46.4428 19.4963 46.9335 18.8319 47.5828 17.8201C48.3175 16.6753 48.9127 15.8423 49.3681 15.321C48.7466 15.3773 48.3591 15.4309 48.2056 15.482C47.9942 15.551 47.8357 15.6532 47.73 15.7887C47.6243 15.9241 47.5714 16.0621 47.5714 16.2026C47.5714 16.2486 47.5878 16.3138 47.6205 16.3981C47.6557 16.4926 47.6733 16.5616 47.6733 16.605C47.6733 16.6613 47.652 16.7111 47.6092 16.7545C47.5664 16.798 47.5148 16.8197 47.4544 16.8197C47.3689 16.8197 47.2997 16.7877 47.2468 16.7239C47.1965 16.6574 47.1713 16.5591 47.1713 16.4287C47.1713 16.2448 47.2179 16.0672 47.311 15.896C47.4066 15.7222 47.5425 15.5778 47.7186 15.4629C47.8948 15.3453 48.115 15.2559 48.3792 15.1946C48.5151 15.1613 48.7541 15.132 49.0964 15.1064C49.3933 15.0809 49.5795 15.0566 49.655 15.0336C49.7733 15.0004 49.8865 14.9352 49.9947 14.8381C49.9192 15.1524 49.8651 15.4271 49.8324 15.6622L49.538 17.8776L49.3681 19.4643C49.5543 19.5129 49.7217 19.5372 49.8701 19.5372C49.9683 19.5372 50.0752 19.5257 50.191 19.5027ZM48.9756 18.004C49.0964 16.9666 49.2171 16.209 49.3379 15.7312C49.0184 16.1604 48.8208 16.4313 48.7453 16.5437L47.7753 18.004C47.9841 18.0117 48.2823 18.0155 48.6698 18.0155C48.7655 18.0155 48.8674 18.0117 48.9756 18.004Z" fill="white"/>
<path d="M51.8631 17.8661C51.9915 17.769 52.1512 17.6016 52.3425 17.364C52.7023 16.9117 52.9791 16.6204 53.1729 16.4901C53.3692 16.3572 53.5592 16.2908 53.7429 16.2908C53.9567 16.2908 54.0637 16.3751 54.0637 16.5437C54.0637 16.7073 53.9668 16.789 53.7731 16.789L53.6674 16.7852C53.612 16.7801 53.5705 16.7775 53.5428 16.7775C53.3943 16.7775 53.2471 16.821 53.1012 16.9078C52.9552 16.9922 52.7652 17.1659 52.5312 17.4291C52.3073 17.6846 52.1437 17.8507 52.0405 17.9274C52.3828 18.0909 52.6168 18.2557 52.7426 18.4218C52.8709 18.5879 53.066 18.998 53.3277 19.6522C53.5164 20.1198 53.6963 20.4481 53.8674 20.6372C54.0385 20.8288 54.2449 20.9247 54.4864 20.9247C54.5896 20.9247 54.684 20.8991 54.7695 20.848C54.8576 20.7969 54.9017 20.7407 54.9017 20.6794C54.9017 20.6487 54.8878 20.595 54.8601 20.5184C54.835 20.4494 54.8224 20.397 54.8224 20.3612C54.8224 20.305 54.8438 20.2526 54.8866 20.2041C54.9318 20.1581 54.9859 20.1351 55.0489 20.1351C55.1218 20.1351 55.1822 20.1632 55.23 20.2194C55.2804 20.2782 55.3055 20.3548 55.3055 20.4494C55.3055 20.641 55.22 20.8058 55.0489 20.9438C54.8803 21.0844 54.6664 21.1546 54.4072 21.1546C54.0297 21.1546 53.6875 21.0064 53.3805 20.71C53.076 20.4162 52.7678 19.8157 52.4557 18.9086C52.3677 18.648 52.2834 18.4576 52.2028 18.3375C52.1248 18.2174 52.0003 18.1101 51.8292 18.0155L51.4479 19.6713H50.878L51.1422 18.6403C51.3888 17.6642 51.5121 17.1123 51.5121 16.9845C51.5121 16.9257 51.4844 16.8963 51.429 16.8963C51.3234 16.8963 51.1246 17.0522 50.8327 17.364L50.7157 17.2298C50.9673 16.9513 51.2152 16.7507 51.4592 16.628C51.7033 16.5028 51.8795 16.4402 51.9877 16.4402C52.0883 16.4402 52.1387 16.4798 52.1387 16.5591C52.1387 16.5872 52.1223 16.674 52.0896 16.8197L51.8631 17.8661Z" fill="white"/>
<path d="M56.7172 16.3827L56.9663 16.3291L56.6832 17.2988C56.57 17.6846 56.4631 18.1292 56.3624 18.6326C56.307 18.906 56.2794 19.0823 56.2794 19.1616C56.2794 19.2408 56.3108 19.2804 56.3737 19.2804C56.414 19.2804 56.4782 19.2535 56.5662 19.1999C56.7223 19.1053 56.872 18.9878 57.0154 18.8473L57.1362 18.9967C56.8493 19.2625 56.6656 19.4235 56.5851 19.4797C56.4241 19.5921 56.2706 19.6752 56.1246 19.7288C56.029 19.7646 55.9359 19.7825 55.8453 19.7825C55.7799 19.7825 55.7308 19.7671 55.6981 19.7365C55.6654 19.7058 55.649 19.6611 55.649 19.6023C55.649 19.564 55.6591 19.5116 55.6792 19.4452L55.8302 18.9239C55.6138 19.1871 55.3559 19.4132 55.0564 19.6023C54.8727 19.7199 54.7041 19.7786 54.5506 19.7786C54.4047 19.7786 54.2927 19.7263 54.2147 19.6215C54.109 19.481 54.0561 19.297 54.0561 19.0696C54.0561 18.7987 54.1266 18.4972 54.2675 18.165C54.411 17.8328 54.6022 17.5313 54.8413 17.2605C55.0803 16.9896 55.332 16.7903 55.5962 16.6625C55.8 16.5654 56.0617 16.5169 56.3813 16.5169C56.4618 16.5169 56.5436 16.522 56.6266 16.5322L56.7172 16.3827ZM56.2492 16.9692C56.1133 16.9411 55.9988 16.927 55.9057 16.927C55.6792 16.927 55.4817 16.9909 55.3131 17.1187C55.1445 17.2439 54.9872 17.4713 54.8413 17.8009C54.6978 18.128 54.6261 18.455 54.6261 18.7821C54.6261 18.9559 54.655 19.0811 54.7129 19.1577C54.7708 19.2344 54.8463 19.2727 54.9394 19.2727C55.113 19.2727 55.2992 19.1782 55.498 18.9891C55.6968 18.7974 55.8428 18.5227 55.9359 18.165L56.2492 16.9692Z" fill="white"/>
<path d="M57.8232 14.3705L57.9062 14.2632C59.3858 14.3782 60.1257 15.2508 60.1257 16.881C60.1257 17.6987 59.947 18.386 59.5897 18.9431C59.2349 19.4976 58.7932 19.7748 58.2648 19.7748C57.9804 19.7748 57.7615 19.6764 57.608 19.4797C57.457 19.2804 57.3815 19.0466 57.3815 18.7783C57.3815 18.2136 57.5564 17.6923 57.9062 17.2145C58.2585 16.7366 58.6347 16.4977 59.0348 16.4977C59.2688 16.4977 59.4651 16.6153 59.6236 16.8504C59.6211 16.094 59.4815 15.5204 59.2047 15.1294C58.9304 14.7385 58.4699 14.4855 57.8232 14.3705ZM59.4878 17.8201C59.4878 17.5058 59.4425 17.2477 59.3519 17.0458C59.2638 16.8414 59.1292 16.7392 58.948 16.7392C58.6712 16.7392 58.4472 16.9219 58.2761 17.2873C58.1075 17.6527 58.0232 18.0424 58.0232 18.4563C58.0232 18.7399 58.0685 18.9827 58.1591 19.1846C58.2497 19.3839 58.3818 19.4835 58.5554 19.4835C58.8197 19.4835 59.0411 19.3072 59.2198 18.9546C59.3984 18.5994 59.4878 18.2212 59.4878 17.8201Z" fill="white"/>
<path d="M62.4621 18.7093L62.5867 18.8779C61.9702 19.4733 61.4417 19.771 61.0014 19.771C60.8227 19.771 60.6856 19.7097 60.5899 19.587C60.4968 19.4643 60.4503 19.2676 60.4503 18.9967C60.4503 18.4499 60.6138 17.9057 60.941 17.364C61.3084 16.7481 61.7475 16.4402 62.2583 16.4402C62.437 16.4402 62.5728 16.4862 62.6659 16.5782C62.7616 16.6677 62.8094 16.7916 62.8094 16.95C62.8094 17.1161 62.7528 17.2796 62.6395 17.4406C62.5263 17.6016 62.3237 17.769 62.0318 17.9427C61.8859 18.027 61.5738 18.1791 61.0957 18.3988C61.0731 18.5368 61.0618 18.6684 61.0618 18.7936C61.0618 18.975 61.0894 19.1015 61.1448 19.1731C61.2027 19.2446 61.2857 19.2804 61.3939 19.2804C61.4971 19.2804 61.6103 19.251 61.7336 19.1922C61.8997 19.113 62.1425 18.952 62.4621 18.7093ZM61.141 18.1535C61.5462 17.9695 61.8506 17.7715 62.0545 17.5594C62.1929 17.4112 62.2621 17.2643 62.2621 17.1187C62.2621 17.0088 62.2331 16.9219 62.1752 16.858C62.1199 16.7916 62.0469 16.7584 61.9563 16.7584C61.8632 16.7584 61.7726 16.7941 61.6846 16.8657C61.5663 16.9602 61.4669 17.1033 61.3864 17.295C61.2706 17.576 61.1888 17.8622 61.141 18.1535Z" fill="white"/>
<path d="M63.821 17.3333L63.6549 17.1991C64.1858 16.7009 64.5897 16.4517 64.8665 16.4517C64.9974 16.4517 65.0716 16.5335 65.0892 16.697L65.3459 19.0811L66.9161 16.5514H67.4521L67.0935 17.8891C66.8872 18.6658 66.784 19.1079 66.784 19.2152C66.784 19.3149 66.8205 19.3647 66.8935 19.3647C66.9841 19.3647 67.1917 19.1973 67.5163 18.8626L67.6408 19.0044C67.1376 19.5385 66.7651 19.8055 66.5236 19.8055C66.4556 19.8055 66.3902 19.7735 66.3273 19.7097C66.2644 19.6483 66.2329 19.5602 66.2329 19.4452C66.2329 19.274 66.321 18.8485 66.4971 18.1688L66.7274 17.2758L65.1874 19.771H64.9043L64.6589 17.5479C64.3066 18.5828 64.0198 19.2127 63.7983 19.4375C63.5794 19.6624 63.3353 19.7748 63.066 19.7748C62.9327 19.7748 62.8308 19.739 62.7603 19.6675C62.6924 19.5934 62.6584 19.5091 62.6584 19.4145C62.6584 19.3225 62.6886 19.242 62.749 19.1731C62.8094 19.1041 62.8849 19.0696 62.9755 19.0696C63.0333 19.0696 63.1076 19.0887 63.1982 19.1271C63.2988 19.1654 63.3705 19.1846 63.4133 19.1846C63.524 19.1846 63.636 19.1168 63.7492 18.9814C63.8625 18.846 64.0286 18.5074 64.2475 17.9657C64.4664 17.424 64.5759 17.0969 64.5759 16.9845C64.5759 16.9206 64.5444 16.8887 64.4815 16.8887C64.3305 16.8887 64.1103 17.0369 63.821 17.3333Z" fill="white"/>
<path d="M70.4718 16.5514H71.0077L70.6529 17.8891C70.4441 18.6658 70.3396 19.1079 70.3396 19.2152C70.3396 19.2638 70.351 19.3008 70.3736 19.3264C70.3963 19.3519 70.4214 19.3647 70.4491 19.3647C70.4919 19.3647 70.5422 19.3455 70.6001 19.3072C70.6831 19.2484 70.8404 19.1002 71.0719 18.8626L71.1965 19.0044C70.6907 19.5385 70.3183 19.8055 70.0792 19.8055C69.9987 19.8055 69.9295 19.7735 69.8716 19.7097C69.8162 19.6483 69.7886 19.5602 69.7886 19.4452C69.7886 19.3123 69.8162 19.1347 69.8716 18.9124C69.6476 19.1731 69.3708 19.4017 69.0412 19.5985C68.8223 19.7288 68.6323 19.794 68.4712 19.794C68.3832 19.794 68.314 19.7646 68.2636 19.7058C68.2133 19.647 68.1881 19.5538 68.1881 19.426C68.1881 19.3264 68.1995 19.219 68.2221 19.1041C68.2548 18.9431 68.3379 18.6198 68.4712 18.1344C68.6398 17.5185 68.7241 17.1493 68.7241 17.0267C68.7241 16.9551 68.699 16.9193 68.6486 16.9193C68.6033 16.9193 68.5417 16.9436 68.4637 16.9922C68.3857 17.0382 68.2523 17.1519 68.0636 17.3333L67.8975 17.1991C68.2347 16.8925 68.4914 16.6919 68.6675 16.5974C68.8462 16.5003 68.9896 16.4517 69.0978 16.4517C69.1582 16.4517 69.2073 16.4747 69.245 16.5207C69.2828 16.5642 69.3016 16.6332 69.3016 16.7277C69.3016 16.904 69.2111 17.3371 69.0299 18.027C68.8688 18.648 68.7883 19.0019 68.7883 19.0887C68.7883 19.1424 68.8047 19.1884 68.8374 19.2267C68.8726 19.265 68.9103 19.2842 68.9506 19.2842C69.0915 19.2842 69.2916 19.1667 69.5508 18.9316C69.8099 18.6939 69.9798 18.4244 70.0603 18.1229L70.4718 16.5514Z" fill="white"/>
<path d="M71.3965 17.3333L71.2304 17.1991C71.7589 16.7009 72.1577 16.4517 72.427 16.4517C72.5654 16.4517 72.6346 16.5437 72.6346 16.7277C72.6346 16.8606 72.5905 17.1033 72.5025 17.4559L72.3666 18.027C72.3515 18.0858 72.3439 18.1292 72.3439 18.1574C72.3439 18.2544 72.4094 18.303 72.5402 18.303C72.6686 18.303 72.8409 18.2225 73.0573 18.0615C73.2763 17.898 73.4298 17.7242 73.5178 17.5403C73.6084 17.3537 73.704 17.0241 73.8047 16.5514H74.3407L73.9859 17.8891C73.777 18.6658 73.6726 19.1079 73.6726 19.2152C73.6726 19.3149 73.7091 19.3647 73.7821 19.3647C73.8726 19.3647 74.0802 19.1973 74.4049 18.8626L74.5294 19.0044C74.0261 19.5385 73.6537 19.8055 73.4121 19.8055C73.3417 19.8055 73.275 19.7735 73.2121 19.7097C73.1517 19.6458 73.1215 19.5576 73.1215 19.4452C73.1215 19.3123 73.1479 19.1411 73.2008 18.9316L73.4084 18.05C72.8497 18.5227 72.4182 18.7591 72.1137 18.7591C71.8772 18.7591 71.7589 18.648 71.7589 18.4256C71.7589 18.3209 71.8281 18.004 71.9665 17.4751C72.0269 17.2375 72.0571 17.088 72.0571 17.0267C72.0571 16.9551 72.0294 16.9193 71.974 16.9193C71.8683 16.9193 71.6758 17.0573 71.3965 17.3333Z" fill="white"/>
<path d="M76.7904 18.7093L76.9149 18.8779C76.2984 19.4733 75.77 19.771 75.3296 19.771C75.151 19.771 75.0138 19.7097 74.9182 19.587C74.8251 19.4643 74.7785 19.2676 74.7785 18.9967C74.7785 18.4499 74.9421 17.9057 75.2692 17.364C75.6366 16.7481 76.0757 16.4402 76.5866 16.4402C76.7652 16.4402 76.9011 16.4862 76.9942 16.5782C77.0898 16.6677 77.1376 16.7916 77.1376 16.95C77.1376 17.1161 77.081 17.2796 76.9678 17.4406C76.8546 17.6016 76.652 17.769 76.3601 17.9427C76.2141 18.027 75.9021 18.1791 75.424 18.3988C75.4013 18.5368 75.39 18.6684 75.39 18.7936C75.39 18.975 75.4177 19.1015 75.4731 19.1731C75.5309 19.2446 75.614 19.2804 75.7222 19.2804C75.8254 19.2804 75.9386 19.251 76.0619 19.1922C76.228 19.113 76.4708 18.952 76.7904 18.7093ZM75.4693 18.1535C75.8744 17.9695 76.1789 17.7715 76.3827 17.5594C76.5211 17.4112 76.5903 17.2643 76.5903 17.1187C76.5903 17.0088 76.5614 16.9219 76.5035 16.858C76.4482 16.7916 76.3752 16.7584 76.2846 16.7584C76.1915 16.7584 76.1009 16.7941 76.0128 16.8657C75.8946 16.9602 75.7952 17.1033 75.7146 17.295C75.5989 17.576 75.5171 17.8622 75.4693 18.1535Z" fill="white"/>
<path d="M79.5119 18.8396L79.5911 19.0619C78.9922 19.5397 78.4864 19.7786 78.0737 19.7786C77.8548 19.7786 77.695 19.6994 77.5944 19.541C77.4962 19.3826 77.4472 19.182 77.4472 18.9392C77.4472 18.5355 77.5528 18.1203 77.7642 17.6936C77.9756 17.2669 78.2323 16.9398 78.5342 16.7124C78.7708 16.5361 79.0375 16.4479 79.3344 16.4479C79.5207 16.4479 79.6616 16.4837 79.7572 16.5552C79.8528 16.6268 79.9006 16.7136 79.9006 16.8159C79.9006 16.8951 79.8755 16.9602 79.8251 17.0113C79.7748 17.0599 79.7044 17.0842 79.6138 17.0842C79.5257 17.0842 79.4125 17.0433 79.2741 16.9615C79.1306 16.8746 79.0111 16.8312 78.9155 16.8312C78.7922 16.8312 78.6689 16.8887 78.5456 17.0037C78.4248 17.1161 78.309 17.3358 78.1983 17.6629C78.0876 17.99 78.0322 18.3183 78.0322 18.648C78.0322 18.8907 78.0788 19.0785 78.1719 19.2114C78.2398 19.3136 78.3354 19.3647 78.4587 19.3647C78.7532 19.3647 79.1042 19.1897 79.5119 18.8396Z" fill="white"/>
<path d="M81.1915 17.8661C81.3199 17.769 81.4797 17.6016 81.6709 17.364C82.0308 16.9117 82.3076 16.6204 82.5013 16.4901C82.6976 16.3572 82.8876 16.2908 83.0713 16.2908C83.2852 16.2908 83.3921 16.3751 83.3921 16.5437C83.3921 16.7073 83.2952 16.789 83.1015 16.789L82.9958 16.7852C82.9404 16.7801 82.8989 16.7775 82.8712 16.7775C82.7228 16.7775 82.5755 16.821 82.4296 16.9078C82.2836 16.9922 82.0937 17.1659 81.8596 17.4291C81.6357 17.6846 81.4721 17.8507 81.3689 17.9274C81.7112 18.0909 81.9452 18.2557 82.071 18.4218C82.1993 18.5879 82.3944 18.998 82.6561 19.6522C82.8448 20.1198 83.0247 20.4481 83.1958 20.6372C83.3669 20.8288 83.5733 20.9247 83.8149 20.9247C83.918 20.9247 84.0124 20.8991 84.098 20.848C84.186 20.7969 84.2301 20.7407 84.2301 20.6794C84.2301 20.6487 84.2162 20.595 84.1885 20.5184C84.1634 20.4494 84.1508 20.397 84.1508 20.3612C84.1508 20.305 84.1722 20.2526 84.215 20.2041C84.2603 20.1581 84.3144 20.1351 84.3773 20.1351C84.4502 20.1351 84.5106 20.1632 84.5585 20.2194C84.6088 20.2782 84.6339 20.3548 84.6339 20.4494C84.6339 20.641 84.5484 20.8058 84.3773 20.9438C84.2087 21.0844 83.9948 21.1546 83.7356 21.1546C83.3581 21.1546 83.0159 21.0064 82.7089 20.71C82.4044 20.4162 82.0962 19.8157 81.7841 18.9086C81.6961 18.648 81.6118 18.4576 81.5312 18.3375C81.4532 18.2174 81.3287 18.1101 81.1576 18.0155L80.7763 19.6713H80.2064L80.4706 18.6403C80.7172 17.6642 80.8405 17.1123 80.8405 16.9845C80.8405 16.9257 80.8128 16.8963 80.7575 16.8963C80.6518 16.8963 80.453 17.0522 80.1611 17.364L80.0441 17.2298C80.2957 16.9513 80.5436 16.7507 80.7877 16.628C81.0317 16.5028 81.2079 16.4402 81.3161 16.4402C81.4168 16.4402 81.4671 16.4798 81.4671 16.5591C81.4671 16.5872 81.4507 16.674 81.418 16.8197L81.1915 17.8661Z" fill="white"/>
<path d="M86.023 16.5514H86.559L86.2042 17.8891C85.9953 18.6658 85.8909 19.1079 85.8909 19.2152C85.8909 19.2638 85.9022 19.3008 85.9248 19.3264C85.9475 19.3519 85.9727 19.3647 86.0003 19.3647C86.0431 19.3647 86.0934 19.3455 86.1513 19.3072C86.2344 19.2484 86.3916 19.1002 86.6231 18.8626L86.7477 19.0044C86.2419 19.5385 85.8695 19.8055 85.6304 19.8055C85.5499 19.8055 85.4807 19.7735 85.4228 19.7097C85.3675 19.6483 85.3398 19.5602 85.3398 19.4452C85.3398 19.3123 85.3675 19.1347 85.4228 18.9124C85.1989 19.1731 84.9221 19.4017 84.5924 19.5985C84.3735 19.7288 84.1835 19.794 84.0225 19.794C83.9344 19.794 83.8652 19.7646 83.8149 19.7058C83.7645 19.647 83.7394 19.5538 83.7394 19.426C83.7394 19.3264 83.7507 19.219 83.7733 19.1041C83.8061 18.9431 83.8891 18.6198 84.0225 18.1344C84.1911 17.5185 84.2754 17.1493 84.2754 17.0267C84.2754 16.9551 84.2502 16.9193 84.1999 16.9193C84.1546 16.9193 84.0929 16.9436 84.0149 16.9922C83.9369 17.0382 83.8035 17.1519 83.6148 17.3333L83.4487 17.1991C83.7859 16.8925 84.0426 16.6919 84.2187 16.5974C84.3974 16.5003 84.5408 16.4517 84.649 16.4517C84.7094 16.4517 84.7585 16.4747 84.7963 16.5207C84.834 16.5642 84.8529 16.6332 84.8529 16.7277C84.8529 16.904 84.7623 17.3371 84.5811 18.027C84.4201 18.648 84.3395 19.0019 84.3395 19.0887C84.3395 19.1424 84.3559 19.1884 84.3886 19.2267C84.4238 19.265 84.4616 19.2842 84.5018 19.2842C84.6428 19.2842 84.8428 19.1667 85.102 18.9316C85.3612 18.6939 85.531 18.4244 85.6116 18.1229L86.023 16.5514Z" fill="white"/>
<path d="M89.5786 16.5514H90.1146L89.7598 17.8891C89.551 18.6658 89.4465 19.1079 89.4465 19.2152C89.4465 19.2638 89.4578 19.3008 89.4805 19.3264C89.5031 19.3519 89.5283 19.3647 89.556 19.3647C89.5988 19.3647 89.6491 19.3455 89.707 19.3072C89.79 19.2484 89.9473 19.1002 90.1788 18.8626L90.3034 19.0044C89.7976 19.5385 89.4251 19.8055 89.1861 19.8055C89.1056 19.8055 89.0364 19.7735 88.9785 19.7097C88.9231 19.6483 88.8954 19.5602 88.8954 19.4452C88.8954 19.3123 88.9231 19.1347 88.9785 18.9124C88.7545 19.1731 88.4777 19.4017 88.1481 19.5985C87.9291 19.7288 87.7392 19.794 87.5781 19.794C87.49 19.794 87.4208 19.7646 87.3705 19.7058C87.3202 19.647 87.295 19.5538 87.295 19.426C87.295 19.3264 87.3063 19.219 87.329 19.1041C87.3617 18.9431 87.4447 18.6198 87.5781 18.1344C87.7467 17.5185 87.831 17.1493 87.831 17.0267C87.831 16.9551 87.8058 16.9193 87.7555 16.9193C87.7102 16.9193 87.6486 16.9436 87.5706 16.9922C87.4926 17.0382 87.3592 17.1519 87.1705 17.3333L87.0044 17.1991C87.3416 16.8925 87.5982 16.6919 87.7744 16.5974C87.9531 16.5003 88.0965 16.4517 88.2047 16.4517C88.2651 16.4517 88.3142 16.4747 88.3519 16.5207C88.3896 16.5642 88.4085 16.6332 88.4085 16.7277C88.4085 16.904 88.3179 17.3371 88.1367 18.027C87.9757 18.648 87.8952 19.0019 87.8952 19.0887C87.8952 19.1424 87.9115 19.1884 87.9442 19.2267C87.9795 19.265 88.0172 19.2842 88.0575 19.2842C88.1984 19.2842 88.3985 19.1667 88.6576 18.9316C88.9168 18.6939 89.0867 18.4244 89.1672 18.1229L89.5786 16.5514ZM90.0391 15.1217L90.1524 15.2636C89.7246 15.6724 89.2729 15.8768 88.7973 15.8768C88.6186 15.8768 88.4475 15.8461 88.284 15.7848C88.1204 15.7209 88.0386 15.62 88.0386 15.482C88.0386 15.3287 88.1191 15.2521 88.2802 15.2521C88.3481 15.2521 88.4765 15.2904 88.6652 15.367C88.9395 15.4795 89.1559 15.5357 89.3144 15.5357C89.4956 15.5357 89.7372 15.3977 90.0391 15.1217Z" fill="white"/>
<path d="M32.7615 39.8741H33.2989L32.9432 41.2153C32.7338 41.9941 32.6291 42.4373 32.6291 42.5449C32.6291 42.5936 32.6404 42.6307 32.6631 42.6563C32.6858 42.6819 32.711 42.6948 32.7388 42.6948C32.7817 42.6948 32.8321 42.6755 32.8902 42.6371C32.9734 42.5782 33.1311 42.4296 33.3632 42.1913L33.4881 42.3335C32.981 42.869 32.6076 43.1367 32.3679 43.1367C32.2872 43.1367 32.2178 43.1047 32.1598 43.0406C32.1043 42.9791 32.0765 42.8907 32.0765 42.7755C32.0765 42.6422 32.1043 42.4642 32.1598 42.2413C31.9352 42.5026 31.6577 42.7319 31.3272 42.9292C31.1077 43.0598 30.9172 43.1252 30.7558 43.1252C30.6675 43.1252 30.5981 43.0957 30.5476 43.0368C30.4972 42.9778 30.4719 42.8843 30.4719 42.7562C30.4719 42.6563 30.4833 42.5487 30.506 42.4334C30.5388 42.272 30.6221 41.948 30.7558 41.4612C30.9248 40.8438 31.0093 40.4736 31.0093 40.3506C31.0093 40.2789 30.9841 40.243 30.9336 40.243C30.8882 40.243 30.8264 40.2674 30.7482 40.316C30.67 40.3622 30.5363 40.4762 30.3471 40.6581L30.1805 40.5236C30.5186 40.2161 30.776 40.015 30.9526 39.9202C31.1317 39.8229 31.2755 39.7742 31.384 39.7742C31.4445 39.7742 31.4937 39.7973 31.5316 39.8434C31.5694 39.8869 31.5883 39.9561 31.5883 40.0509C31.5883 40.2277 31.4975 40.6619 31.3159 41.3536C31.1544 41.9761 31.0737 42.331 31.0737 42.4181C31.0737 42.4719 31.0901 42.518 31.1229 42.5564C31.1582 42.5948 31.196 42.6141 31.2364 42.6141C31.3777 42.6141 31.5782 42.4962 31.8381 42.2605C32.098 42.0223 32.2683 41.752 32.349 41.4497L32.7615 39.8741Z" fill="white"/>
<path d="M34.5184 40.6581L34.3519 40.5236C34.8842 40.024 35.2891 39.7742 35.5667 39.7742C35.6979 39.7742 35.7723 39.8562 35.7899 40.0201L36.0473 42.4104L37.6216 39.8741H38.159L37.7995 41.2153C37.5926 41.9941 37.4891 42.4373 37.4891 42.5449C37.4891 42.6448 37.5257 42.6948 37.5989 42.6948C37.6897 42.6948 37.8979 42.527 38.2233 42.1913L38.3482 42.3335C37.8436 42.869 37.4702 43.1367 37.228 43.1367C37.1599 43.1367 37.0943 43.1047 37.0312 43.0406C36.9682 42.9791 36.9366 42.8907 36.9366 42.7755C36.9366 42.6038 37.0249 42.1773 37.2015 41.4958L37.4324 40.6004L35.8883 43.1021H35.6045L35.3585 40.8733C35.0053 41.9108 34.7177 42.5423 34.4957 42.7678C34.2762 42.9932 34.0315 43.1059 33.7615 43.1059C33.6278 43.1059 33.5256 43.0701 33.455 42.9983C33.3868 42.924 33.3528 42.8395 33.3528 42.7447C33.3528 42.6525 33.3831 42.5718 33.4436 42.5026C33.5042 42.4334 33.5798 42.3989 33.6707 42.3989C33.7287 42.3989 33.8031 42.4181 33.894 42.4565C33.9949 42.4949 34.0668 42.5141 34.1097 42.5141C34.2207 42.5141 34.3329 42.4463 34.4465 42.3105C34.56 42.1747 34.7265 41.8352 34.946 41.2921C35.1655 40.749 35.2753 40.4211 35.2753 40.3084C35.2753 40.2443 35.2437 40.2123 35.1807 40.2123C35.0293 40.2123 34.8085 40.3609 34.5184 40.6581Z" fill="white"/>
<path d="M38.9849 42.1721C39.0833 42.1721 39.1653 42.2106 39.2309 42.2874C39.299 42.3617 39.3331 42.4565 39.3331 42.5718C39.3331 42.7383 39.294 42.869 39.2157 42.9638C39.1375 43.0585 39.0391 43.1059 38.9206 43.1059C38.8222 43.1059 38.7389 43.0714 38.6708 43.0022C38.6052 42.9304 38.5724 42.8395 38.5724 42.7293C38.5724 42.5679 38.6191 42.427 38.7124 42.3066C38.7805 42.217 38.8714 42.1721 38.9849 42.1721Z" fill="white"/>
<path d="M46.4647 39.3169H46.2641C46.2843 39.1863 46.2944 39.0825 46.2944 39.0056C46.2944 38.9032 46.2515 38.8366 46.1657 38.8058C46.0825 38.7725 45.7646 38.7559 45.2121 38.7559L44.6595 38.7597L44.2395 40.4582H45.0228C45.2701 40.4582 45.4215 40.4403 45.477 40.4044C45.535 40.366 45.5766 40.2725 45.6018 40.1239H45.8176C45.7368 40.4339 45.6649 40.7746 45.6018 41.1461H45.4088C45.4215 41.0257 45.4278 40.9322 45.4278 40.8656C45.4278 40.8374 45.4101 40.8028 45.3748 40.7618C45.3571 40.7413 45.3243 40.7272 45.2764 40.7195C45.2083 40.7067 45.1023 40.7003 44.9585 40.7003H44.1827C43.9582 41.5714 43.7248 42.2541 43.4826 42.7486C43.7172 42.6743 43.9254 42.6371 44.107 42.6371C44.4098 42.6371 44.7806 42.6858 45.2196 42.7831C45.4517 42.8369 45.6094 42.8638 45.6927 42.8638C45.8037 42.8638 45.8932 42.8357 45.9614 42.7793C46.0295 42.7229 46.0635 42.6589 46.0635 42.5872C46.0635 42.5462 46.0471 42.4796 46.0143 42.3873C45.9942 42.3233 45.9841 42.2631 45.9841 42.2067C45.9841 42.1478 46.0068 42.0953 46.0522 42.0492C46.1001 42.003 46.1569 41.98 46.2225 41.98C46.3007 41.98 46.365 42.0107 46.4155 42.0722C46.4685 42.1337 46.495 42.2157 46.495 42.3182C46.495 42.5359 46.4004 42.7268 46.2111 42.8907C46.0244 43.0547 45.7772 43.1367 45.4694 43.1367C45.3079 43.1367 45.1036 43.1226 44.8563 43.0944C44.3139 43.0329 43.9001 43.0022 43.615 43.0022C43.2416 43.0022 42.8052 43.0329 42.3056 43.0944L42.3662 42.8831C42.6639 42.7985 42.8392 42.737 42.8922 42.6986C42.9452 42.6576 42.9893 42.5987 43.0247 42.5218C43.1458 42.2784 43.3022 41.7904 43.4939 41.0577C43.6882 40.325 43.885 39.5513 44.0843 38.7366C43.7816 38.7366 43.4952 38.8097 43.2252 38.9557C42.9553 39.1017 42.7446 39.2926 42.5932 39.5283C42.4419 39.7614 42.3662 40.0073 42.3662 40.2661C42.3662 40.3762 42.3763 40.4723 42.3965 40.5543C42.4192 40.6363 42.4684 40.7516 42.544 40.9002C42.592 40.9898 42.616 41.0628 42.616 41.1192C42.616 41.1756 42.592 41.2255 42.544 41.2691C42.4986 41.3126 42.4419 41.3344 42.3738 41.3344C42.2754 41.3344 42.1971 41.2844 42.1391 41.1845C42.0533 41.0385 42.0104 40.84 42.0104 40.5889C42.0104 40.0509 42.211 39.568 42.6122 39.1401C43.0133 38.7123 43.5974 38.4984 44.3643 38.4984H45.6624C46.1115 38.4984 46.4432 38.4689 46.6577 38.41C46.5568 38.8353 46.4924 39.1376 46.4647 39.3169Z" fill="white"/>
<path d="M48.7173 41.1768L48.9065 41.173C49.2446 41.173 49.4137 41.3421 49.4137 41.6802C49.4137 42.0261 49.2169 42.3515 48.8233 42.6563C48.4297 42.9586 48.045 43.1098 47.669 43.1098C47.2023 43.1098 46.9689 42.8574 46.9689 42.3527C46.9689 41.7533 47.1493 41.1717 47.5101 40.6081C47.8734 40.0445 48.2973 39.7627 48.7817 39.7627C49.15 39.7627 49.3342 39.933 49.3342 40.2738C49.3342 40.6068 49.1286 40.9078 48.7173 41.1768ZM47.6615 41.4804C48.4133 41.1525 48.7892 40.7951 48.7892 40.4083C48.7892 40.1649 48.6896 40.0432 48.4903 40.0432C48.0992 40.0432 47.8229 40.5223 47.6615 41.4804ZM47.6312 41.7571C47.6085 41.9006 47.5971 42.0415 47.5971 42.1798C47.5971 42.4104 47.6224 42.5718 47.6728 42.664C47.7258 42.7562 47.8154 42.8024 47.9415 42.8024C48.1232 42.8024 48.3099 42.7037 48.5016 42.5065C48.6934 42.3066 48.7892 42.0761 48.7892 41.8147C48.7892 41.5457 48.6883 41.4113 48.4865 41.4113C48.325 41.4113 48.0399 41.5265 47.6312 41.7571Z" fill="white"/>
<path d="M52.2415 40.3429C52.2415 40.5248 52.1847 40.7183 52.0712 40.9232C51.9602 41.1256 51.6739 41.3703 51.2122 41.6572C50.7757 41.9288 50.502 42.1158 50.3909 42.2182C50.2825 42.3207 50.2282 42.4334 50.2282 42.5564C50.2282 42.7767 50.3733 42.8869 50.6634 42.8869C50.7946 42.8869 50.8981 42.8587 50.9737 42.8024C51.0494 42.7434 51.1213 42.6461 51.1895 42.5103C51.2626 42.3617 51.3295 42.2618 51.39 42.2106C51.4506 42.1568 51.5288 42.1299 51.6247 42.1299C51.7634 42.1299 51.8328 42.2029 51.8328 42.3489C51.8328 42.5154 51.7104 42.6832 51.4657 42.8523C51.2235 43.0214 50.9485 43.1059 50.6407 43.1059C50.0731 43.1059 49.7892 42.8933 49.7892 42.468C49.7892 42.2503 49.8649 42.0543 50.0163 41.8801C50.1677 41.7059 50.4528 41.4817 50.8716 41.2076C51.2752 40.9437 51.5414 40.7477 51.6701 40.6196C51.7987 40.489 51.8631 40.3583 51.8631 40.2277C51.8631 40.0842 51.795 40.0125 51.6587 40.0125C51.5528 40.0125 51.3875 40.106 51.163 40.293C51.0166 40.4108 50.8943 40.4698 50.7959 40.4698C50.6571 40.4698 50.5877 40.4096 50.5877 40.2891C50.5877 40.1662 50.6811 40.0483 50.8678 39.9356C51.0545 39.8203 51.2727 39.7627 51.5225 39.7627C51.7495 39.7627 51.9261 39.8152 52.0523 39.9202C52.1784 40.0253 52.2415 40.1662 52.2415 40.3429Z" fill="white"/>
<path d="M54.5585 42.0376L54.6834 42.2067C54.0652 42.8036 53.5354 43.1021 53.0939 43.1021C52.9148 43.1021 52.7773 43.0406 52.6814 42.9176C52.5881 42.7947 52.5414 42.5974 52.5414 42.3258C52.5414 41.7776 52.7054 41.2319 53.0334 40.6888C53.4017 40.0714 53.842 39.7627 54.3541 39.7627C54.5333 39.7627 54.6695 39.8088 54.7628 39.901C54.8587 39.9907 54.9066 40.1149 54.9066 40.2738C54.9066 40.4403 54.8499 40.6043 54.7363 40.7657C54.6228 40.9271 54.4197 41.0949 54.1271 41.2691C53.9807 41.3536 53.6679 41.506 53.1885 41.7264C53.1658 41.8647 53.1545 41.9966 53.1545 42.1222C53.1545 42.3041 53.1822 42.4309 53.2377 42.5026C53.2957 42.5743 53.379 42.6102 53.4875 42.6102C53.5909 42.6102 53.7045 42.5808 53.8281 42.5218C53.9946 42.4424 54.2381 42.281 54.5585 42.0376ZM53.2339 41.4804C53.6401 41.296 53.9454 41.0974 54.1498 40.8848C54.2885 40.7362 54.3579 40.5889 54.3579 40.4429C54.3579 40.3327 54.3289 40.2456 54.2709 40.1815C54.2154 40.1149 54.1422 40.0816 54.0514 40.0816C53.958 40.0816 53.8672 40.1175 53.7789 40.1892C53.6603 40.284 53.5607 40.4275 53.4799 40.6196C53.3639 40.9014 53.2819 41.1884 53.2339 41.4804Z" fill="white"/>
<path d="M58.533 42.3335C58.0284 42.869 57.655 43.1367 57.4128 43.1367C57.3422 43.1367 57.2753 43.1047 57.2123 43.0406C57.1517 42.9766 57.1214 42.8882 57.1214 42.7755C57.1214 42.6448 57.1467 42.4757 57.1971 42.2682L57.375 41.5073H56.3229L55.9748 43.0022H55.4109C55.4159 42.9714 55.4424 42.8677 55.4904 42.6909C55.5257 42.5628 55.5925 42.2989 55.6909 41.8993L56.0277 40.5274C56.0454 40.4557 56.0542 40.3993 56.0542 40.3583C56.0542 40.2815 56.0277 40.243 55.9748 40.243C55.8637 40.243 55.6695 40.3814 55.392 40.6581L55.2254 40.5274C55.7553 40.0253 56.1551 39.7742 56.4251 39.7742C56.5639 39.7742 56.6332 39.8677 56.6332 40.0547C56.6332 40.2341 56.55 40.6401 56.3835 41.2729H57.4393L57.8064 39.8741H58.3438L57.9881 41.2153C57.7787 41.9941 57.674 42.4373 57.674 42.5449C57.674 42.6448 57.7105 42.6948 57.7837 42.6948C57.8745 42.6948 58.0827 42.527 58.4081 42.1913L58.533 42.3335Z" fill="white"/>
<path d="M61.4101 39.8741H61.9475L61.5917 41.2153C61.3823 41.9941 61.2776 42.4373 61.2776 42.5449C61.2776 42.5936 61.289 42.6307 61.3117 42.6563C61.3344 42.6819 61.3596 42.6948 61.3874 42.6948C61.4303 42.6948 61.4807 42.6755 61.5387 42.6371C61.622 42.5782 61.7797 42.4296 62.0118 42.1913L62.1367 42.3335C61.6296 42.869 61.2562 43.1367 61.0165 43.1367C60.9358 43.1367 60.8664 43.1047 60.8084 43.0406C60.7528 42.9791 60.7251 42.8907 60.7251 42.7755C60.7251 42.6422 60.7528 42.4642 60.8084 42.2413C60.5838 42.5026 60.3063 42.7319 59.9758 42.9292C59.7563 43.0598 59.5658 43.1252 59.4043 43.1252C59.316 43.1252 59.2467 43.0957 59.1962 43.0368C59.1457 42.9778 59.1205 42.8843 59.1205 42.7562C59.1205 42.6563 59.1319 42.5487 59.1546 42.4334C59.1874 42.272 59.2706 41.948 59.4043 41.4612C59.5734 40.8438 59.6579 40.4736 59.6579 40.3506C59.6579 40.2789 59.6327 40.243 59.5822 40.243C59.5368 40.243 59.475 40.2674 59.3968 40.316C59.3186 40.3622 59.1848 40.4762 58.9956 40.6581L58.8291 40.5236C59.1672 40.2161 59.4245 40.015 59.6011 39.9202C59.7803 39.8229 59.9241 39.7742 60.0325 39.7742C60.0931 39.7742 60.1423 39.7973 60.1801 39.8434C60.218 39.8869 60.2369 39.9561 60.2369 40.0509C60.2369 40.2277 60.1461 40.6619 59.9644 41.3536C59.803 41.9761 59.7222 42.331 59.7222 42.4181C59.7222 42.4719 59.7386 42.518 59.7714 42.5564C59.8067 42.5948 59.8446 42.6141 59.885 42.6141C60.0262 42.6141 60.2268 42.4962 60.4867 42.2605C60.7465 42.0223 60.9168 41.752 60.9976 41.4497L61.4101 39.8741Z" fill="white"/>
<path d="M62.3987 42.2336C62.4618 42.4693 62.5085 42.6128 62.5387 42.664C62.569 42.7127 62.6157 42.737 62.6788 42.737C62.7973 42.737 62.9348 42.6051 63.0913 42.3412C63.2502 42.0722 63.3877 41.8903 63.5038 41.7955C63.6198 41.7007 63.8128 41.6188 64.0828 41.5496V41.4996H63.9844C63.664 41.4996 63.423 41.4382 63.2616 41.3152C63.1026 41.1896 63.0231 41.0347 63.0231 40.8502C63.0231 40.5633 63.1972 40.3263 63.5454 40.1393C63.8961 39.9523 64.359 39.8587 64.9343 39.8587L65.6117 39.8741L65.2559 41.2153C65.0491 41.9941 64.9456 42.4373 64.9456 42.5449C64.9456 42.6448 64.9809 42.6948 65.0516 42.6948C65.1424 42.6948 65.3506 42.527 65.676 42.1913L65.8009 42.3335C65.2963 42.869 64.9242 43.1367 64.6845 43.1367C64.6012 43.1367 64.5306 43.1021 64.4726 43.0329C64.4171 42.9638 64.3893 42.8613 64.3893 42.7255C64.3893 42.5897 64.4145 42.4258 64.465 42.2336L64.6391 41.5688C64.4272 41.5688 64.2556 41.6303 64.1244 41.7533C63.9932 41.8737 63.8229 42.1222 63.6135 42.4988C63.3738 42.924 63.1051 43.1367 62.8074 43.1367C62.6889 43.1367 62.5829 43.0957 62.4895 43.0137C62.3962 42.9317 62.3028 42.6935 62.2095 42.2989L62.3987 42.2336ZM64.9948 40.2046C64.8434 40.1611 64.6757 40.1393 64.4915 40.1393C64.277 40.1393 64.0828 40.2033 63.9087 40.3314C63.7346 40.4595 63.6476 40.626 63.6476 40.831C63.6476 41.1871 63.8809 41.3651 64.3477 41.3651C64.4259 41.3651 64.5407 41.3562 64.6921 41.3382L64.9948 40.2046Z" fill="white"/>
<path d="M69.6325 39.3169L69.6779 39.1325C69.9656 39.112 70.2759 39.0607 70.6089 38.9787C70.5206 39.2426 70.4563 39.4553 70.4159 39.6166L70.2115 40.4736C70.6581 40.4736 70.9937 40.3609 71.2182 40.1354C71.4453 39.9074 71.5588 39.6371 71.5588 39.3246C71.5588 39.1068 71.4768 38.9313 71.3128 38.7981C71.1513 38.6649 70.9091 38.5983 70.5862 38.5983C70.1296 38.5983 69.6943 38.7085 69.2806 38.9288C68.8668 39.1491 68.5439 39.4373 68.3118 39.7934C68.0822 40.147 67.9674 40.5018 67.9674 40.8579C67.9674 40.9552 67.98 41.0462 68.0052 41.1307C68.033 41.2127 68.0721 41.2883 68.1226 41.3575C68.1528 41.3984 68.2197 41.4548 68.3231 41.5265C68.4392 41.6085 68.5111 41.67 68.5388 41.711C68.5666 41.7494 68.5805 41.7955 68.5805 41.8493C68.5805 41.9031 68.5603 41.9505 68.5199 41.9915C68.4821 42.0299 68.4354 42.0492 68.3799 42.0492C68.2361 42.0492 68.0898 41.9428 67.9409 41.7302C67.7946 41.5176 67.7214 41.255 67.7214 40.9424C67.7214 40.512 67.8476 40.0957 68.0998 39.6935C68.3547 39.2887 68.7142 38.9646 69.1784 38.7213C69.6426 38.4779 70.1535 38.3562 70.7111 38.3562C71.1652 38.3562 71.5096 38.4471 71.7442 38.629C71.9814 38.8109 72.1 39.0325 72.1 39.2939C72.1 39.5424 72.0205 39.7691 71.8615 39.974C71.7026 40.1764 71.4617 40.3327 71.1387 40.4429C71.3607 40.4787 71.5361 40.5402 71.6648 40.6273C71.7934 40.7119 71.8918 40.8195 71.9599 40.9501C72.0306 41.0808 72.0659 41.2306 72.0659 41.3997C72.0659 41.6764 71.9852 41.939 71.8237 42.1875C71.6648 42.4334 71.4289 42.6384 71.116 42.8024C70.8057 42.9638 70.4815 43.0445 70.1434 43.0445C70.045 43.0445 69.8344 43.0342 69.5114 43.0137C69.3575 43.006 69.1961 43.0022 69.027 43.0022C68.7697 43.0022 68.5414 43.0227 68.342 43.0637L68.3988 42.8523C68.6637 42.8369 68.8517 42.7729 68.9627 42.6602C69.0762 42.5449 69.1822 42.2925 69.2806 41.9031L69.8407 39.6704C69.8634 39.5757 69.8747 39.5039 69.8747 39.4553C69.8747 39.4168 69.8583 39.3835 69.8255 39.3553C69.7953 39.3246 69.7562 39.3092 69.7082 39.3092C69.688 39.3092 69.6628 39.3118 69.6325 39.3169ZM70.151 40.7042L69.958 41.4766C69.8596 41.8762 69.765 42.1837 69.6742 42.3989C69.6212 42.527 69.5531 42.6358 69.4698 42.7255C69.6969 42.7819 69.8924 42.81 70.0564 42.81C70.4979 42.81 70.8309 42.6717 71.0555 42.395C71.2825 42.1183 71.3961 41.8096 71.3961 41.4689C71.3961 41.2998 71.3532 41.1551 71.2674 41.0347C71.1841 40.9117 71.0731 40.8259 70.9344 40.7772C70.7981 40.7285 70.537 40.7042 70.151 40.7042Z" fill="white"/>
<path d="M75.136 39.705L75.3857 39.6512L75.1019 40.6235C74.9884 41.0103 74.8811 41.4561 74.7802 41.9608C74.7247 42.2349 74.697 42.4117 74.697 42.4911C74.697 42.5705 74.7285 42.6102 74.7916 42.6102C74.832 42.6102 74.8963 42.5833 74.9846 42.5295C75.141 42.4347 75.2911 42.3169 75.4349 42.176L75.556 42.3258C75.2684 42.5923 75.0842 42.7537 75.0035 42.81C74.842 42.9228 74.6881 43.006 74.5418 43.0598C74.4459 43.0957 74.3526 43.1136 74.2618 43.1136C74.1962 43.1136 74.147 43.0983 74.1142 43.0675C74.0814 43.0368 74.065 42.9919 74.065 42.933C74.065 42.8946 74.0751 42.8421 74.0953 42.7755L74.2466 42.2528C74.0297 42.5167 73.7711 42.7434 73.4708 42.933C73.2867 43.0509 73.1176 43.1098 72.9637 43.1098C72.8174 43.1098 72.7051 43.0573 72.6269 42.9522C72.5209 42.8113 72.468 42.6269 72.468 42.3989C72.468 42.1273 72.5386 41.825 72.6799 41.492C72.8237 41.1589 73.0154 40.8566 73.2551 40.585C73.4948 40.3135 73.7471 40.1137 74.012 39.9856C74.2164 39.8882 74.4787 39.8395 74.7992 39.8395C74.8799 39.8395 74.9619 39.8447 75.0451 39.8549L75.136 39.705ZM74.6667 40.293C74.5305 40.2648 74.4157 40.2507 74.3223 40.2507C74.0953 40.2507 73.8972 40.3148 73.7282 40.4429C73.5591 40.5684 73.4014 40.7964 73.2551 41.1269C73.1113 41.4548 73.0394 41.7827 73.0394 42.1106C73.0394 42.2849 73.0684 42.4104 73.1264 42.4872C73.1845 42.5641 73.2602 42.6025 73.3535 42.6025C73.5276 42.6025 73.7143 42.5077 73.9136 42.3182C74.1129 42.126 74.2592 41.8506 74.3526 41.492L74.6667 40.293Z" fill="white"/>
<path d="M76.2041 40.5466L76.0943 40.3929C76.3618 40.1623 76.5951 39.9932 76.7944 39.8856C76.9282 39.8114 77.0278 39.7742 77.0934 39.7742C77.1893 39.7742 77.2662 39.8229 77.3243 39.9202C77.4075 40.0586 77.4895 40.3609 77.5702 40.8271C77.8831 40.3609 78.1594 40.0394 78.399 39.8626C78.6387 39.6858 78.8393 39.5974 79.0008 39.5974C79.084 39.5974 79.1509 39.6218 79.2013 39.6704C79.2518 39.7191 79.277 39.7793 79.277 39.8511C79.277 39.9305 79.2417 39.9958 79.1711 40.047C79.1206 40.0829 78.9831 40.1085 78.7586 40.1239C78.5744 40.1342 78.4129 40.1969 78.2741 40.3122C78.0521 40.4992 77.8377 40.7721 77.6308 41.1307L77.873 42.2797C77.9764 42.7844 78.0849 43.1585 78.1985 43.4018C78.312 43.6452 78.4508 43.8322 78.6147 43.9629C78.7081 44.0372 78.8115 44.0743 78.9251 44.0743C79.0865 44.0743 79.2038 43.9744 79.277 43.7746C79.325 43.6439 79.4019 43.5786 79.5079 43.5786C79.5583 43.5786 79.6025 43.5991 79.6403 43.6401C79.6782 43.6836 79.6971 43.7374 79.6971 43.8015C79.6971 43.927 79.6264 44.0423 79.4852 44.1473C79.3464 44.2524 79.1673 44.3049 78.9478 44.3049C78.7056 44.3049 78.4735 44.2268 78.2514 44.0705C78.0319 43.9168 77.8415 43.6683 77.68 43.325C77.521 42.9842 77.3735 42.4411 77.2372 41.6956C77.1868 41.7648 77.106 41.8801 76.995 42.0415C76.6771 42.4975 76.4311 42.7908 76.2571 42.9215C76.083 43.0521 75.9165 43.1175 75.7575 43.1175C75.6465 43.1175 75.5544 43.0854 75.4813 43.0214C75.4081 42.9599 75.3715 42.8856 75.3715 42.7985C75.3715 42.7268 75.3955 42.6653 75.4434 42.6141C75.4913 42.5603 75.5469 42.5334 75.6099 42.5334C75.6755 42.5334 75.7424 42.5769 75.8105 42.664C75.8685 42.7409 75.924 42.7793 75.977 42.7793C76.0123 42.7793 76.0514 42.7678 76.0943 42.7447C76.1574 42.7088 76.2419 42.632 76.3479 42.5141C76.4993 42.3476 76.6153 42.2042 76.6961 42.0837L77.1653 41.3805L77.0102 40.6619C76.9698 40.4672 76.9282 40.3429 76.8853 40.2891C76.8449 40.2328 76.7995 40.2046 76.749 40.2046C76.7112 40.2046 76.6582 40.2251 76.5901 40.2661C76.4438 40.3506 76.3151 40.4441 76.2041 40.5466Z" fill="white"/>
<path d="M79.2439 40.6542L79.1303 40.5005C79.3801 40.2469 79.6173 40.0599 79.8418 39.9394C80.0663 39.819 80.243 39.7588 80.3716 39.7588C80.4246 39.7588 80.4637 39.7704 80.4889 39.7934C80.5167 39.8165 80.5306 39.8485 80.5306 39.8895C80.5306 39.9407 80.5104 40.0394 80.47 40.1854C80.412 40.4006 80.3716 40.571 80.3489 40.6965C80.9544 40.0714 81.4174 39.7588 81.7378 39.7588C81.821 39.7588 81.8841 39.7819 81.927 39.828C81.9699 39.8741 81.9913 39.9471 81.9913 40.047C81.9913 40.1546 81.9535 40.3378 81.8778 40.5966C82.1654 40.2917 82.4152 40.0765 82.6271 39.951C82.8391 39.8229 83.0043 39.7588 83.1229 39.7588C83.2288 39.7588 83.3108 39.7896 83.3689 39.8511C83.4269 39.9125 83.4559 40.0073 83.4559 40.1354C83.4559 40.2123 83.4433 40.3032 83.4181 40.4083C83.3928 40.5133 83.3008 40.8335 83.1418 41.369C82.9425 42.0325 82.8428 42.4283 82.8428 42.5564C82.8428 42.6435 82.8782 42.6871 82.9488 42.6871C82.9967 42.6871 83.0434 42.6717 83.0888 42.641C83.2377 42.5334 83.3903 42.4001 83.5467 42.2413L83.6716 42.3796C83.6186 42.4232 83.519 42.5129 83.3727 42.6486C83.1708 42.8331 83.0321 42.9484 82.9564 42.9945C82.81 43.0816 82.6864 43.1252 82.5855 43.1252C82.5098 43.1252 82.443 43.0867 82.3849 43.0099C82.3269 42.9356 82.2979 42.8318 82.2979 42.6986C82.2979 42.5756 82.3155 42.4322 82.3509 42.2682C82.3862 42.1017 82.4896 41.7302 82.6612 41.1538C82.7899 40.7208 82.8542 40.4582 82.8542 40.366C82.8542 40.2789 82.8163 40.2353 82.7407 40.2353C82.6776 40.2353 82.5931 40.2674 82.4871 40.3314C82.2701 40.4646 82.0885 40.6273 81.9422 40.8195C81.8412 40.9527 81.7529 41.164 81.6772 41.4535C81.5082 42.0863 81.3821 42.6025 81.2988 43.0022H80.7614L81.3253 40.6542C81.3657 40.4851 81.3858 40.3878 81.3858 40.3622C81.3858 40.3212 81.3758 40.2904 81.3556 40.2699C81.3354 40.2469 81.3064 40.2353 81.2685 40.2353C81.2004 40.2353 81.0944 40.2891 80.9506 40.3967C80.7009 40.5786 80.5205 40.7554 80.4095 40.9271C80.301 41.0961 80.2076 41.3549 80.1294 41.7033L79.838 43.0022H79.2968L79.7245 41.1692C79.8506 40.6388 79.9137 40.3506 79.9137 40.3045C79.9137 40.2456 79.891 40.2161 79.8456 40.2161C79.7472 40.2161 79.5466 40.3622 79.2439 40.6542Z" fill="white"/>
<path d="M86.5676 39.705L86.8174 39.6512L86.5335 40.6235C86.42 41.0103 86.3128 41.4561 86.2119 41.9608C86.1564 42.2349 86.1286 42.4117 86.1286 42.4911C86.1286 42.5705 86.1601 42.6102 86.2232 42.6102C86.2636 42.6102 86.3279 42.5833 86.4162 42.5295C86.5726 42.4347 86.7228 42.3169 86.8666 42.176L86.9877 42.3258C86.7001 42.5923 86.5159 42.7537 86.4352 42.81C86.2737 42.9228 86.1198 43.006 85.9734 43.0598C85.8776 43.0957 85.7842 43.1136 85.6934 43.1136C85.6278 43.1136 85.5786 43.0983 85.5458 43.0675C85.513 43.0368 85.4966 42.9919 85.4966 42.933C85.4966 42.8946 85.5067 42.8421 85.5269 42.7755L85.6783 42.2528C85.4613 42.5167 85.2027 42.7434 84.9025 42.933C84.7183 43.0509 84.5493 43.1098 84.3954 43.1098C84.249 43.1098 84.1368 43.0573 84.0585 42.9522C83.9526 42.8113 83.8996 42.6269 83.8996 42.3989C83.8996 42.1273 83.9702 41.825 84.1115 41.492C84.2553 41.1589 84.4471 40.8566 84.6868 40.585C84.9264 40.3135 85.1787 40.1137 85.4436 39.9856C85.648 39.8882 85.9104 39.8395 86.2308 39.8395C86.3115 39.8395 86.3935 39.8447 86.4768 39.8549L86.5676 39.705ZM86.0983 40.293C85.9621 40.2648 85.8473 40.2507 85.754 40.2507C85.5269 40.2507 85.3288 40.3148 85.1598 40.4429C84.9908 40.5684 84.8331 40.7964 84.6868 41.1269C84.5429 41.4548 84.471 41.7827 84.471 42.1106C84.471 42.2849 84.5001 42.4104 84.5581 42.4872C84.6161 42.5641 84.6918 42.6025 84.7851 42.6025C84.9592 42.6025 85.1459 42.5077 85.3452 42.3182C85.5446 42.126 85.6909 41.8506 85.7842 41.492L86.0983 40.293Z" fill="white"/>
<path d="M90.5648 42.3335C90.0603 42.869 89.6869 43.1367 89.4447 43.1367C89.374 43.1367 89.3072 43.1047 89.2441 43.0406C89.1835 42.9766 89.1533 42.8882 89.1533 42.7755C89.1533 42.6448 89.1785 42.4757 89.2289 42.2682L89.4068 41.5073H88.3547L88.0066 43.0022H87.4427C87.4478 42.9714 87.4742 42.8677 87.5222 42.6909C87.5575 42.5628 87.6244 42.2989 87.7227 41.8993L88.0596 40.5274C88.0772 40.4557 88.0861 40.3993 88.0861 40.3583C88.0861 40.2815 88.0596 40.243 88.0066 40.243C87.8956 40.243 87.7013 40.3814 87.4238 40.6581L87.2573 40.5274C87.7871 40.0253 88.187 39.7742 88.4569 39.7742C88.5957 39.7742 88.6651 39.8677 88.6651 40.0547C88.6651 40.2341 88.5818 40.6401 88.4153 41.2729H89.4711L89.8382 39.8741H90.3756L90.0199 41.2153C89.8105 41.9941 89.7058 42.4373 89.7058 42.5449C89.7058 42.6448 89.7424 42.6948 89.8155 42.6948C89.9064 42.6948 90.1145 42.527 90.44 42.1913L90.5648 42.3335Z" fill="white"/>
<path d="M93.2451 40.3429C93.2451 40.5248 93.1883 40.7183 93.0748 40.9232C92.9638 41.1256 92.6775 41.3703 92.2158 41.6572C91.7793 41.9288 91.5055 42.1158 91.3945 42.2182C91.2861 42.3207 91.2318 42.4334 91.2318 42.5564C91.2318 42.7767 91.3769 42.8869 91.667 42.8869C91.7982 42.8869 91.9016 42.8587 91.9773 42.8024C92.053 42.7434 92.1249 42.6461 92.193 42.5103C92.2662 42.3617 92.3331 42.2618 92.3936 42.2106C92.4542 42.1568 92.5324 42.1299 92.6283 42.1299C92.767 42.1299 92.8364 42.2029 92.8364 42.3489C92.8364 42.5154 92.714 42.6832 92.4693 42.8523C92.2271 43.0214 91.9521 43.1059 91.6443 43.1059C91.0766 43.1059 90.7928 42.8933 90.7928 42.468C90.7928 42.2503 90.8685 42.0543 91.0199 41.8801C91.1713 41.7059 91.4563 41.4817 91.8752 41.2076C92.2788 40.9437 92.545 40.7477 92.6737 40.6196C92.8023 40.489 92.8667 40.3583 92.8667 40.2277C92.8667 40.0842 92.7986 40.0125 92.6623 40.0125C92.5564 40.0125 92.3911 40.106 92.1666 40.293C92.0202 40.4108 91.8979 40.4698 91.7995 40.4698C91.6607 40.4698 91.5913 40.4096 91.5913 40.2891C91.5913 40.1662 91.6847 40.0483 91.8714 39.9356C92.0581 39.8203 92.2763 39.7627 92.5261 39.7627C92.7531 39.7627 92.9297 39.8152 93.0559 39.9202C93.182 40.0253 93.2451 40.1662 93.2451 40.3429Z" fill="white"/>
<path d="M95.4561 39.7704C95.7034 39.7704 95.909 39.8703 96.073 40.0701C96.237 40.2699 96.319 40.5479 96.319 40.904C96.319 41.4727 96.1222 41.9838 95.7286 42.4373C95.335 42.8882 94.9187 43.1136 94.4797 43.1136C94.2098 43.1136 93.9916 43.024 93.825 42.8446C93.661 42.6653 93.579 42.4206 93.579 42.1106C93.579 41.5726 93.7304 41.0756 94.0332 40.6196C94.4141 40.0535 94.8885 39.7704 95.4561 39.7704ZM95.1344 40.0586C94.92 40.0586 94.7118 40.2148 94.51 40.5274C94.3107 40.8374 94.211 41.2665 94.211 41.8147C94.211 42.1478 94.2729 42.4104 94.3965 42.6025C94.4873 42.7434 94.6084 42.8139 94.7598 42.8139C94.9717 42.8139 95.1647 42.6807 95.3388 42.4142C95.5608 42.0684 95.6718 41.6393 95.6718 41.1269C95.6718 40.7426 95.6201 40.4685 95.5167 40.3045C95.4157 40.1406 95.2883 40.0586 95.1344 40.0586Z" fill="white"/>
<path d="M98.4353 41.1768L98.6246 41.173C98.9626 41.173 99.1317 41.3421 99.1317 41.6802C99.1317 42.0261 98.9349 42.3515 98.5413 42.6563C98.1477 42.9586 97.763 43.1098 97.3871 43.1098C96.9203 43.1098 96.687 42.8574 96.687 42.3527C96.687 41.7533 96.8673 41.1717 97.2281 40.6081C97.5914 40.0445 98.0153 39.7627 98.4997 39.7627C98.868 39.7627 99.0522 39.933 99.0522 40.2738C99.0522 40.6068 98.8466 40.9078 98.4353 41.1768ZM97.3795 41.4804C98.1313 41.1525 98.5073 40.7951 98.5073 40.4083C98.5073 40.1649 98.4076 40.0432 98.2083 40.0432C97.8172 40.0432 97.541 40.5223 97.3795 41.4804ZM97.3492 41.7571C97.3265 41.9006 97.3152 42.0415 97.3152 42.1798C97.3152 42.4104 97.3404 42.5718 97.3909 42.664C97.4438 42.7562 97.5334 42.8024 97.6595 42.8024C97.8412 42.8024 98.0279 42.7037 98.2196 42.5065C98.4114 42.3066 98.5073 42.0761 98.5073 41.8147C98.5073 41.5457 98.4063 41.4113 98.2045 41.4113C98.043 41.4113 97.7579 41.5265 97.3492 41.7571Z" fill="white"/>
<path d="M102.179 39.705L102.429 39.6512L102.145 40.6235C102.031 41.0103 101.924 41.4561 101.823 41.9608C101.768 42.2349 101.74 42.4117 101.74 42.4911C101.74 42.5705 101.772 42.6102 101.835 42.6102C101.875 42.6102 101.939 42.5833 102.028 42.5295C102.184 42.4347 102.334 42.3169 102.478 42.176L102.599 42.3258C102.311 42.5923 102.127 42.7537 102.047 42.81C101.885 42.9228 101.731 43.006 101.585 43.0598C101.489 43.0957 101.396 43.1136 101.305 43.1136C101.239 43.1136 101.19 43.0983 101.157 43.0675C101.124 43.0368 101.108 42.9919 101.108 42.933C101.108 42.8946 101.118 42.8421 101.138 42.7755L101.29 42.2528C101.073 42.5167 100.814 42.7434 100.514 42.933C100.33 43.0509 100.161 43.1098 100.007 43.1098C99.8605 43.1098 99.7482 43.0573 99.67 42.9522C99.564 42.8113 99.511 42.6269 99.511 42.3989C99.511 42.1273 99.5817 41.825 99.723 41.492C99.8668 41.1589 100.059 40.8566 100.298 40.585C100.538 40.3135 100.79 40.1137 101.055 39.9856C101.259 39.8882 101.522 39.8395 101.842 39.8395C101.923 39.8395 102.005 39.8447 102.088 39.8549L102.179 39.705ZM101.71 40.293C101.574 40.2648 101.459 40.2507 101.365 40.2507C101.138 40.2507 100.94 40.3148 100.771 40.4429C100.602 40.5684 100.445 40.7964 100.298 41.1269C100.154 41.4548 100.082 41.7827 100.082 42.1106C100.082 42.2849 100.111 42.4104 100.17 42.4872C100.228 42.5641 100.303 42.6025 100.397 42.6025C100.571 42.6025 100.757 42.5077 100.957 42.3182C101.156 42.126 101.302 41.8506 101.396 41.492L101.71 40.293Z" fill="white"/>
<path d="M23.9785 22.3079L22.8069 26.0439L23.5057 26.2943C24.9651 23.2262 27.6988 23.1845 28.0688 23.1845C28.7265 23.1845 28.932 23.3097 28.932 24.2489V33.829C28.932 35.2691 28.5826 35.8952 27.3083 35.8952H26.7739V36.5214H33.1457V35.8952H32.6113C31.3369 35.8952 30.9875 35.2691 30.9875 33.829V24.2489C30.9875 23.3097 31.193 23.1845 31.8508 23.1845C32.2207 23.1845 34.9544 23.2262 36.4138 26.2943L37.1126 26.0439L35.941 22.3079H23.9785Z" fill="white"/>
<path d="M37.485 22.3079V22.934H37.6906C38.9649 22.934 39.3143 23.5602 39.3143 25.0003V33.829C39.3143 35.2691 38.9649 35.8952 37.6906 35.8952H37.485V36.5214H49.4476L51.318 32.0757L50.6603 31.7835C48.3377 35.4152 45.1518 35.6448 43.7746 35.6448C42.1097 35.6448 41.3698 35.3943 41.3698 33.5368V29.3833H42.7058C44.3707 29.3833 45.3984 29.8842 45.4601 32.0757H46.1589V25.8143H45.4601C45.419 28.0058 44.3296 28.5067 42.7058 28.5067H41.3698V25.1881C41.3698 24.0611 41.4314 23.1845 43.9185 23.1845C45.4806 23.1845 48.0293 23.5184 50.0026 26.3152L50.6603 26.0439L49.242 22.3079H37.485Z" fill="white"/>
<path d="M60.1507 22.3079H58.3008L54.8066 31.2618C53.9639 33.4324 53.5734 35.6239 51.3946 35.8952V36.5214H56.9032V35.8952C56.3276 35.8952 55.0944 35.7283 55.0944 34.5386C55.0944 34.0168 55.3616 33.3907 55.5671 32.8062L56.1426 31.2409H61.4251L62.35 33.7037C62.5145 34.1212 62.6583 34.5386 62.6583 34.8517C62.6583 35.29 62.2678 35.8535 61.0551 35.8952V36.5214H66.8309V35.8952C65.1454 35.8744 64.8165 34.6221 64.3027 33.2654L60.1507 22.3079ZM58.7119 24.1028L61.0757 30.3643H56.451L58.7119 24.1028Z" fill="white"/>
<path d="M66.2271 22.3079L65.0555 26.0439L65.7543 26.2943C67.2137 23.2262 69.9474 23.1845 70.3174 23.1845C70.9751 23.1845 71.1806 23.3097 71.1806 24.2489V33.829C71.1806 35.2691 70.8312 35.8952 69.5569 35.8952H69.0224V36.5214H75.3943V35.8952H74.8599C73.5855 35.8952 73.2361 35.2691 73.2361 33.829V24.2489C73.2361 23.3097 73.4416 23.1845 74.0993 23.1845C74.4693 23.1845 77.203 23.2262 78.6624 26.2943L79.3612 26.0439L78.1896 22.3079H66.2271Z" fill="white"/>
<path d="M83.6184 30.3017H86.4549C90.6685 30.3017 91.7373 28.1728 91.7373 26.2526C91.7373 24.2907 90.4629 22.3079 86.4754 22.3079H79.7336V22.934H79.9392C81.2135 22.934 81.5629 23.5602 81.5629 25.0003V33.829C81.5629 35.2691 81.2135 35.8952 79.9392 35.8952H79.7336V36.5214H85.4477V35.8952H85.2422C83.9678 35.8952 83.6184 35.2691 83.6184 33.829V30.3017ZM83.6184 29.4251V24.4576C83.6184 23.5184 83.9883 23.1845 86.2082 23.1845C88.983 23.1845 89.6408 24.8542 89.6408 26.2317C89.6408 28.8824 87.832 29.4251 86.1465 29.4251H83.6184Z" fill="white"/>
<path d="M1.4587 17.3357H2.52378C4.10597 17.3357 4.50731 16.5363 4.50731 15.8153C4.50731 15.0786 4.02879 14.3341 2.5315 14.3341H0V14.5692H0.0771799C0.555696 14.5692 0.686902 14.8043 0.686902 15.3451V18.6602C0.686902 19.201 0.555696 19.4361 0.0771799 19.4361H0V19.6712H2.1456V19.4361H2.06842C1.58991 19.4361 1.4587 19.201 1.4587 18.6602V17.3357ZM1.4587 17.0066V15.1413C1.4587 14.7886 1.59762 14.6633 2.43117 14.6633C3.4731 14.6633 3.72007 15.2902 3.72007 15.8075C3.72007 16.8028 3.04089 17.0066 2.40801 17.0066H1.4587Z" fill="white"/>
<path d="M4.58539 14.3341V14.5692H4.73204C5.14881 14.5692 5.42665 14.9532 5.52699 15.1256L7.51823 18.4878C7.333 19.1226 7.01656 19.3969 6.76187 19.3969C6.28335 19.3969 6.36053 18.9815 6.33738 18.8169C6.31422 18.668 6.20617 18.4329 5.84343 18.4329C5.51927 18.4329 5.34947 18.6915 5.34947 18.9815C5.34947 19.3812 5.81255 19.8044 6.52261 19.8044C7.51051 19.8044 7.76521 19.0599 8.14339 18.1116L9.23934 15.3372C9.33968 15.0708 9.60981 14.5614 10.3585 14.5692V14.3341H8.19742V14.5692C8.67593 14.5535 8.83801 14.7573 8.83801 14.9297C8.83801 15.0629 8.81485 15.2119 8.66821 15.5959L7.88869 17.5787L6.52261 15.1492C6.43771 15.0002 6.3914 14.9219 6.3914 14.8435C6.3914 14.5849 6.74643 14.5692 6.90851 14.5692H6.97025V14.3341H4.58539Z" fill="white"/>
<path d="M14.7098 14.4046H14.4628L14.293 14.7651C13.7219 14.2557 13.1044 14.2009 12.7571 14.2009C11.229 14.2009 10.1639 15.5018 10.1639 17.0144C10.1639 18.6445 11.2907 19.8044 12.8806 19.8044C14.1695 19.8044 14.895 19.0129 15.2423 18.4251L14.9104 18.237C14.4705 19.0285 13.691 19.4126 13.0041 19.4126C12.2709 19.4126 11.09 18.9815 11.09 17.0536C11.09 15.8702 11.5222 14.5927 12.8497 14.5927C13.8762 14.5927 14.3547 15.2745 14.8333 16.2934H15.0802L14.7098 14.4046Z" fill="white"/>
<path d="M20.6158 14.4046H20.3689L20.1991 14.7651C19.6279 14.2557 19.0105 14.2009 18.6632 14.2009C17.135 14.2009 16.0699 15.5018 16.0699 17.0144C16.0699 18.6445 17.1968 19.8044 18.7867 19.8044C20.0756 19.8044 20.8011 19.0129 21.1484 18.4251L20.8165 18.237C20.3766 19.0285 19.5971 19.4126 18.9102 19.4126C18.177 19.4126 16.9961 18.9815 16.9961 17.0536C16.9961 15.8702 17.4283 14.5927 18.7558 14.5927C19.7823 14.5927 20.2608 15.2745 20.7393 16.2934H20.9863L20.6158 14.4046Z" fill="white"/>
<path d="M23.3344 16.6617V15.3451C23.3344 14.8043 23.4656 14.5692 23.9441 14.5692H24.0213V14.3341H21.8757V14.5692H21.9529C22.4314 14.5692 22.5626 14.8043 22.5626 15.3451V18.6602C22.5626 19.201 22.4314 19.4361 21.9529 19.4361H21.8757V19.6712H24.0213V19.4361H23.9441C23.4656 19.4361 23.3344 19.201 23.3344 18.6602V16.9909H23.9981C24.276 16.9909 24.6156 16.9909 24.8626 17.2182C25.1404 17.4768 25.1636 17.9 25.2021 18.331C25.2562 18.9267 25.3179 19.2715 25.4954 19.4909C25.6421 19.6712 25.9122 19.8044 26.2672 19.8044C26.9773 19.8044 27.232 19.3107 27.3323 18.5897L27.0467 18.5426C26.9927 18.864 26.877 19.1383 26.5914 19.1383C26.3058 19.1383 26.2209 18.9423 26.1669 18.7542C25.9662 18.0881 25.9739 16.9674 24.7854 16.795C25.4182 16.5363 25.3411 15.7996 25.534 15.1962C25.5803 15.0551 25.6498 14.8905 25.8041 14.8905C26.0125 14.8905 25.9662 15.0943 25.9817 15.1962C26.0048 15.3372 26.1592 15.4783 26.383 15.4783C26.6763 15.4783 26.9001 15.2824 26.9001 14.9376C26.9001 14.5849 26.6686 14.2009 26.1283 14.2009C25.8196 14.2009 25.3719 14.3184 25.1558 14.9611C25.0632 15.2354 25.0246 15.5253 24.9706 15.8075C24.9475 15.925 24.9166 16.0348 24.878 16.1523C24.7468 16.5207 24.5693 16.6617 24.1679 16.6617H23.3344Z" fill="white"/>
<path d="M29.9123 19.6712V19.4361H29.8197C29.4261 19.4361 29.2408 19.2558 29.2254 18.8875L32.0039 15.6272V18.6602C32.0039 19.201 31.8727 19.4361 31.3941 19.4361H31.317V19.6712H33.4626V19.4361H33.3854C32.9069 19.4361 32.7757 19.201 32.7757 18.6602V15.3451C32.7757 14.8043 32.9069 14.5692 33.3854 14.5692H33.4626V14.3341H31.317V14.5692H31.3941C31.6874 14.5692 31.9498 14.6476 32.0039 15.0865L29.2254 18.3702V15.3451C29.2254 14.8043 29.3566 14.5692 29.8351 14.5692H29.9123V14.3341H27.7667V14.5692H27.8439C28.3224 14.5692 28.4536 14.8043 28.4536 15.3451V18.6602C28.4536 19.201 28.3224 19.4361 27.8439 19.4361H27.7667V19.6712H29.9123Z" fill="white"/>
<path d="M36.2781 19.6712V19.4361H36.1855C35.7919 19.4361 35.6067 19.2558 35.5912 18.8875L38.3697 15.6272V18.6602C38.3697 19.201 38.2385 19.4361 37.76 19.4361H37.6828V19.6712H39.8284V19.4361H39.7512C39.2727 19.4361 39.1415 19.201 39.1415 18.6602V15.3451C39.1415 14.8043 39.2727 14.5692 39.7512 14.5692H39.8284V14.3341H37.6828V14.5692H37.76C38.0533 14.5692 38.3157 14.6476 38.3697 15.0865L35.5912 18.3702V15.3451C35.5912 14.8043 35.7224 14.5692 36.201 14.5692H36.2781V14.3341H34.1325V14.5692H34.2097C34.6882 14.5692 34.8194 14.8043 34.8194 15.3451V18.6602C34.8194 19.201 34.6882 19.4361 34.2097 19.4361H34.1325V19.6712H36.2781ZM36.9805 13.8952C37.9992 13.8952 38.6939 13.3544 38.6939 12.8137C38.6939 12.6334 38.5781 12.3591 38.2539 12.3591C37.9375 12.3591 37.8063 12.5315 37.8063 12.7432C37.8063 12.845 37.8449 12.9469 37.8449 13.041C37.8449 13.1977 37.6982 13.5661 36.9805 13.5661C36.2627 13.5661 36.1161 13.1977 36.1161 13.041C36.1161 12.9469 36.1546 12.845 36.1546 12.7432C36.1546 12.5315 36.0234 12.3591 35.707 12.3591C35.3828 12.3591 35.2671 12.6334 35.2671 12.8137C35.2671 13.3544 35.9617 13.8952 36.9805 13.8952Z" fill="white"/>
</svg>
