<svg width="32" height="32" viewBox="0 0 32 32" fill="none" xmlns="http://www.w3.org/2000/svg">
<path d="M26.053 14.8531C26.4227 14.402 26.7162 14.0401 26.933 13.767C28.4942 11.8082 29.1709 10.5568 28.9635 10.0112L28.8821 9.88347C28.8281 9.80672 28.6879 9.73624 28.4625 9.67245C28.2368 9.6087 27.9481 9.59852 27.5963 9.6406L23.6976 9.66655C23.6074 9.65807 23.5171 9.66005 23.4268 9.67245C23.3366 9.6854 23.278 9.6984 23.2507 9.7108C23.2235 9.7238 23.2011 9.73422 23.1832 9.7427L23.1291 9.78105C23.084 9.80644 23.0344 9.85129 22.9803 9.91536C22.9262 9.97939 22.8807 10.0536 22.8449 10.1391C22.4207 11.1695 21.938 12.1278 21.3964 13.0136C21.0625 13.5417 20.7555 13.9998 20.4761 14.3868C20.1963 14.7747 19.9616 15.0599 19.7721 15.2427C19.5826 15.4258 19.411 15.573 19.2577 15.6833C19.1041 15.7945 18.9869 15.841 18.9059 15.8241C18.8246 15.8072 18.7478 15.7903 18.6757 15.7728C18.5493 15.6963 18.4477 15.5922 18.3712 15.4599C18.2944 15.3282 18.2427 15.162 18.2154 14.9617C18.1885 14.7617 18.1724 14.5891 18.1682 14.4441C18.1634 14.2994 18.1658 14.0952 18.1751 13.8308C18.1841 13.5668 18.1885 13.3882 18.1885 13.2943C18.1885 12.971 18.1954 12.6195 18.2089 12.2404C18.2223 11.8616 18.2337 11.5611 18.2427 11.3397C18.2517 11.1185 18.2561 10.8841 18.2561 10.637C18.2561 10.3904 18.2403 10.1963 18.2085 10.0556C18.1768 9.91536 18.1293 9.77911 18.0665 9.64682C18.0032 9.51509 17.9108 9.41267 17.7888 9.34048C17.6669 9.26798 17.5159 9.21073 17.3354 9.16782C16.8568 9.0654 16.2477 9.01068 15.5079 9.0017C13.8292 8.98533 12.7508 9.08743 12.2725 9.30859C12.083 9.40253 11.9114 9.53002 11.7581 9.69195C11.5955 9.87955 11.5731 9.98192 11.6906 9.99829C12.2322 10.075 12.6154 10.2584 12.8411 10.5478L12.9224 10.701C12.9854 10.8121 13.0485 11.0079 13.1119 11.2889C13.175 11.5699 13.2156 11.8807 13.2339 12.2215C13.279 12.8432 13.279 13.3752 13.2339 13.8184C13.1887 14.2616 13.146 14.6063 13.1053 14.8529C13.0647 15.1 13.0037 15.3 12.9227 15.4532C12.8414 15.6069 12.7873 15.7005 12.7601 15.7346C12.7329 15.7685 12.7105 15.7899 12.6925 15.7984C12.5751 15.8408 12.4534 15.8622 12.327 15.8622C12.2006 15.8622 12.0472 15.8024 11.8667 15.683C11.6861 15.5643 11.4987 15.4001 11.305 15.1913C11.1107 14.9829 10.8922 14.6909 10.6483 14.316C10.4047 13.9417 10.1518 13.4985 9.89023 12.9876L9.67381 12.617C9.53843 12.3789 9.35337 12.0316 9.11873 11.576C8.8841 11.1204 8.67633 10.6798 8.4961 10.2536C8.42377 10.075 8.31554 9.93878 8.17121 9.84484L8.10367 9.80649C8.05854 9.77261 7.9862 9.73624 7.88696 9.69812C7.78742 9.65978 7.68402 9.63212 7.5755 9.61493L3.86635 9.64032C3.48734 9.64032 3.23029 9.72159 3.0949 9.88347L3.04078 9.95994C3.01343 10.0028 3 10.0711 3 10.1645C3 10.2584 3.0272 10.3732 3.08132 10.5092C3.62292 11.7103 4.2118 12.8686 4.84786 13.984C5.48426 15.1 6.03695 15.9987 6.50621 16.68C6.97548 17.3618 7.45373 18.0044 7.94127 18.6092C8.4288 19.214 8.7513 19.6013 8.90911 19.7714C9.06691 19.9421 9.19097 20.0699 9.28128 20.1548L9.61965 20.4616C9.83606 20.6659 10.1544 20.9107 10.5741 21.1962C10.9937 21.4817 11.4583 21.7627 11.9685 22.0392C12.4782 22.3162 13.0718 22.5415 13.7485 22.7165C14.4252 22.8913 15.084 22.9615 15.7249 22.9272H17.2816C17.5976 22.9018 17.8366 22.8084 17.999 22.6462L18.0531 22.5824C18.0889 22.5316 18.123 22.4527 18.1547 22.3463C18.1861 22.2399 18.2023 22.1226 18.2023 21.9951C18.1929 21.629 18.2226 21.2983 18.2901 21.005C18.3577 20.711 18.4345 20.4899 18.5203 20.3404C18.6061 20.1917 18.7029 20.0659 18.8114 19.9635C18.9197 19.861 18.9961 19.7998 19.0416 19.7784C19.0867 19.7575 19.1229 19.7426 19.1498 19.7336C19.3662 19.6655 19.6212 19.7316 19.9147 19.9316C20.2079 20.1322 20.4833 20.3787 20.7406 20.6726C20.9976 20.9666 21.3067 21.2963 21.6678 21.6628C22.0286 22.0289 22.3445 22.3014 22.6153 22.4802L22.8862 22.634C23.0666 22.7358 23.301 22.8295 23.59 22.915C23.8788 22.9999 24.1317 23.0213 24.3481 22.9787L27.8136 22.9274C28.1565 22.9274 28.4228 22.8744 28.6123 22.7677C28.8018 22.6619 28.9146 22.544 28.9507 22.4165C28.9866 22.2888 28.989 22.1446 28.9576 21.9824C28.926 21.8207 28.8943 21.7079 28.8629 21.6441C28.8313 21.5804 28.8018 21.5268 28.7746 21.4845C28.3234 20.718 27.4615 19.7766 26.1891 18.661L26.1619 18.6356L26.1485 18.6226L26.135 18.6102H26.1214C25.5436 18.0906 25.1784 17.7413 25.025 17.5622C24.7453 17.222 24.6819 16.877 24.8356 16.5278C24.9431 16.263 25.3491 15.7051 26.053 14.8531Z" fill="#555555"/>
</svg>
